<svg width="18" height="12" viewBox="0 0 18 12" fill="none" xmlns="http://www.w3.org/2000/svg">
<path d="M17.3341 1.28333C17.0219 0.972911 16.5995 0.798676 16.1591 0.798676C15.7188 0.798676 15.2964 0.972911 14.9841 1.28333L9.00081 7.18333L3.10081 1.28333C2.78854 0.972911 2.36612 0.798676 1.92581 0.798676C1.4855 0.798676 1.06308 0.972911 0.75081 1.28333C0.594596 1.43827 0.470605 1.6226 0.38599 1.8257C0.301376 2.0288 0.257812 2.24664 0.257812 2.46666C0.257812 2.68668 0.301376 2.90453 0.38599 3.10762C0.470605 3.31072 0.594596 3.49506 0.75081 3.65L7.81748 10.7167C7.97241 10.8729 8.15675 10.9969 8.35985 11.0815C8.56295 11.1661 8.78079 11.2097 9.00081 11.2097C9.22083 11.2097 9.43867 11.1661 9.64177 11.0815C9.84487 10.9969 10.0292 10.8729 10.1841 10.7167L17.3341 3.65C17.4904 3.49506 17.6143 3.31072 17.699 3.10762C17.7836 2.90453 17.8271 2.68668 17.8271 2.46666C17.8271 2.24664 17.7836 2.0288 17.699 1.8257C17.6143 1.6226 17.4904 1.43827 17.3341 1.28333Z" fill="#020416"/>
</svg>
