<svg width="369" height="368" viewBox="0 0 369 368" fill="none" xmlns="http://www.w3.org/2000/svg">
<path d="M184.5 0C135.583 0.0504156 88.6841 19.4522 54.0946 53.9479C19.5051 88.4436 0.0505527 135.215 0 184C0 233.162 19.1784 279.359 54.016 314.103C71.1102 331.246 91.4451 344.838 113.843 354.089C136.241 363.341 160.257 368.069 184.5 367.999C233.417 367.949 280.316 348.547 314.905 314.051C349.495 279.556 368.949 232.784 369 184C368.949 135.215 349.495 88.4436 314.905 53.9479C280.316 19.4522 233.417 0.0504156 184.5 0ZM72.9761 312.905C85.7279 296.36 102.061 282.901 120.758 273.531C139.455 264.161 160.032 259.122 180.953 258.791C181.608 258.818 182.236 258.982 182.89 258.982H183.518C184.118 258.982 184.664 258.818 185.264 258.791C206.475 259.151 227.322 264.356 246.201 274.006C265.08 283.656 281.49 297.494 294.169 314.456C263.493 340.275 224.64 354.425 184.5 354.396C143.518 354.469 103.897 339.729 72.9761 312.905ZM182.972 245.052C182.29 245.052 181.636 245.161 180.953 245.188C165.03 244.65 149.945 237.939 138.905 226.482C127.865 215.025 121.742 199.726 121.836 183.836C121.865 175.793 123.485 167.835 126.604 160.418C129.724 153.001 134.281 146.271 140.014 140.614C145.747 134.957 152.543 130.484 160.013 127.453C167.484 124.421 175.48 122.89 183.545 122.948C191.61 122.976 199.59 124.592 207.027 127.703C214.465 130.814 221.213 135.358 226.885 141.076C232.558 146.793 237.042 153.572 240.082 161.021C243.122 168.471 244.657 176.446 244.6 184.489C244.6 217.464 218.137 244.263 185.291 245.215C184.527 245.188 183.763 245.052 182.972 245.052ZM304.29 305.315C283.195 277.552 253.19 257.846 219.283 249.486C231.082 243.039 240.924 233.545 247.778 221.999C254.632 210.453 258.246 197.281 258.24 183.864C258.208 174.035 256.232 164.31 252.426 155.244C248.62 146.178 243.058 137.95 236.059 131.03C229.06 124.111 220.761 118.636 211.638 114.92C202.514 111.203 192.745 109.318 182.89 109.371C173.035 109.403 163.283 111.374 154.193 115.17C145.102 118.965 136.852 124.512 129.913 131.492C122.975 138.472 117.486 146.748 113.759 155.847C110.032 164.946 108.142 174.688 108.196 184.517C108.246 197.809 111.872 210.844 118.695 222.262C125.519 233.681 135.29 243.063 146.989 249.432C113.655 257.598 84.0471 276.717 62.9368 303.71C31.2737 271.905 13.5548 228.872 13.6677 184.054C13.7182 138.878 31.7357 95.566 63.7671 63.6214C95.7986 31.6768 139.228 13.7082 184.527 13.6578C229.827 13.7082 273.256 31.6768 305.287 63.6214C337.319 95.566 355.336 138.878 355.387 184.054C355.375 206.638 350.851 228.993 342.078 249.814C333.304 270.634 320.458 289.502 304.29 305.315Z" fill="url(#paint0_linear_1446_5363)"/>
<defs>
<linearGradient id="paint0_linear_1446_5363" x1="0" y1="184" x2="327.37" y2="184" gradientUnits="userSpaceOnUse">
<stop stop-color="#000092"/>
<stop offset="1" stop-color="#FF00F3"/>
</linearGradient>
</defs>
</svg>
