<svg width="219" height="219" viewBox="0 0 219 219" fill="none" xmlns="http://www.w3.org/2000/svg">
<path d="M74.4665 53.6448L30.5399 96.7228C22.4027 104.703 22.5019 117.836 30.7589 125.689L50.4655 144.437L105.862 87.0902L74.4665 53.6448Z" fill="url(#paint0_linear_1446_6602)"/>
<path d="M145.067 54.6404L113.069 87.09L147.688 122.229L180.887 89.0405L145.067 54.6404Z" fill="url(#paint1_linear_1446_6602)"/>
<path d="M191.505 92.6815L126.322 27.4948C121.826 23.0053 115.851 20.5312 109.5 20.5312C103.146 20.5312 97.171 23.0053 92.6849 27.4948L27.4982 92.6849C23.0053 97.1744 20.5312 103.149 20.5312 109.5C20.5312 115.854 23.0087 121.829 27.4982 126.315L92.6849 191.509C97.1744 195.995 103.149 198.469 109.5 198.469C115.854 198.469 121.829 195.995 126.312 191.505L191.502 126.319C195.957 121.867 198.428 115.947 198.465 109.651C198.51 103.241 196.039 97.2155 191.505 92.6815ZM178.03 88.8832L146.72 119.8L148.804 121.911L114.356 87.4666L145.478 56.3309L178.03 88.8832ZM97.5234 32.3333C100.723 29.1373 104.973 27.375 109.5 27.375C114.024 27.375 118.281 29.1373 121.483 32.3333L140.639 51.489L109.514 82.6246L78.3678 51.4855L97.5234 32.3333ZM27.375 109.5C27.375 104.976 29.1373 100.726 32.3367 97.5234L73.5293 56.3275L104.675 87.4666L51.5163 140.653L32.3367 121.473C29.1373 118.277 27.375 114.024 27.375 109.5ZM121.47 186.667C118.277 189.863 114.027 191.625 109.5 191.625C104.976 191.625 100.723 189.863 97.5234 186.667L56.3549 145.491L109.517 92.3051L162.679 145.46L121.47 186.667ZM186.663 121.48L167.521 140.622L151.545 124.649L182.868 93.7183L186.67 97.52C189.897 100.75 191.659 105.041 191.625 109.61C191.594 114.092 189.835 118.308 186.663 121.48Z" fill="url(#paint2_linear_1446_6602)"/>
<defs>
<linearGradient id="paint0_linear_1446_6602" x1="65.1795" y1="56.8613" x2="65.1795" y2="114.397" gradientUnits="userSpaceOnUse">
<stop stop-color="#6DC7FF"/>
<stop offset="1" stop-color="#E6ABFF"/>
</linearGradient>
<linearGradient id="paint1_linear_1446_6602" x1="146.977" y1="56.8612" x2="146.977" y2="114.397" gradientUnits="userSpaceOnUse">
<stop stop-color="#6DC7FF"/>
<stop offset="1" stop-color="#E6ABFF"/>
</linearGradient>
<linearGradient id="paint2_linear_1446_6602" x1="109.5" y1="16.5277" x2="109.5" y2="197.61" gradientUnits="userSpaceOnUse">
<stop stop-color="#1A6DFF"/>
<stop offset="1" stop-color="#C822FF"/>
</linearGradient>
</defs>
</svg>
