<svg width="80" height="80" viewBox="0 0 80 80" fill="none" xmlns="http://www.w3.org/2000/svg">
<path d="M39.9994 44.9106C38.741 44.9106 37.4827 44.4318 36.5251 43.4742C34.61 41.5591 34.61 38.4408 36.5251 36.5257C38.4402 34.6106 41.5585 34.6106 43.4736 36.5257C45.3888 38.4408 45.3888 41.5591 43.4736 43.4742C42.516 44.4318 41.2577 44.9106 39.9994 44.9106ZM39.9994 36.1605C39.0172 36.1605 38.032 36.5349 37.2832 37.2838C35.7854 38.7815 35.7854 41.2184 37.2832 42.7162C38.7809 44.2139 41.2178 44.2139 42.7155 42.7162C44.2133 41.2184 44.2133 38.7815 42.7155 37.2838C41.9667 36.5349 40.9815 36.1605 39.9994 36.1605Z" fill="#1E438A"/>
<path d="M39.999 48.161C37.8199 48.161 35.7697 47.3109 34.229 45.7701C32.6883 44.2294 31.8381 42.1793 31.8381 40.0002C31.8381 37.8211 32.6883 35.7709 34.229 34.2302C35.7697 32.6895 37.8199 31.8394 39.999 31.8394C42.178 31.8394 44.2282 32.6895 45.7689 34.2302C47.3096 35.7709 48.1598 37.8211 48.1598 40.0002C48.1598 42.1793 47.3096 44.2294 45.7689 45.7701C44.2282 47.3109 42.178 48.161 39.999 48.161ZM39.999 33.1069C38.1575 33.1069 36.4265 33.8251 35.1252 35.1264C33.8239 36.4277 33.1057 38.1587 33.1057 40.0002C33.1057 41.8417 33.8239 43.5726 35.1252 44.874C36.4265 46.1753 38.1575 46.8934 39.999 46.8934C41.8404 46.8934 43.5714 46.1753 44.8727 44.874C46.1741 43.5726 46.8922 41.8417 46.8922 40.0002C46.8922 38.1587 46.1741 36.4277 44.8727 35.1264C43.5714 33.8251 41.8404 33.1069 39.999 33.1069Z" fill="#1E438A"/>
<path d="M39.9962 51.5034C36.924 51.5034 34.0329 50.3064 31.8599 48.1334C27.3729 43.6464 27.3729 36.348 31.8599 31.8609C36.347 27.3738 43.6454 27.3738 48.1325 31.8609C50.3054 34.0339 51.5024 36.925 51.5024 39.9972C51.5024 43.0694 50.3054 45.9605 48.1325 48.1334C45.9595 50.3064 43.0684 51.5034 39.9962 51.5034ZM39.9962 29.958C37.4243 29.958 34.8523 30.9371 32.8942 32.8952C28.978 36.8114 28.978 43.1829 32.8942 47.0992C34.791 48.9959 37.3138 50.0424 39.9962 50.0424C42.6786 50.0424 45.2015 48.9989 47.0982 47.0992C48.9949 45.2024 50.0415 42.6796 50.0415 39.9972C50.0415 37.3148 48.998 34.7919 47.0982 32.8952C45.1401 30.9371 42.5681 29.958 39.9962 29.958Z" fill="#1E438A"/>
<path d="M40 80C34.804 80 29.7399 79.0148 24.949 77.0721C19.9862 75.0587 15.5329 72.1031 11.7149 68.2851C7.89688 64.4671 4.9413 60.0138 2.92795 55.051C0.985191 50.257 0 45.193 0 40C0 34.807 0.985191 29.7399 2.92795 24.949C4.9413 19.9862 7.89688 15.5329 11.7149 11.7149C15.5329 7.89688 19.9862 4.9413 24.949 2.92795C29.743 0.985192 34.807 0 40 0C45.193 0 50.2601 0.985192 55.051 2.92795C60.0138 4.9413 64.4671 7.89688 68.2851 11.7149C72.1031 15.5329 75.0587 19.9862 77.0721 24.949C79.0148 29.743 80 34.807 80 40C80 45.193 79.0148 50.2601 77.0721 55.051C75.0587 60.0138 72.1031 64.4671 68.2851 68.2851C64.4671 72.1031 60.0138 75.0587 55.051 77.0721C50.2601 79.0148 45.196 80 40 80ZM40 1.96731C30.2555 1.96731 20.5141 5.67483 13.096 13.0929C-1.7402 27.9291 -1.7402 52.0709 13.096 66.904C27.9322 81.7371 52.0709 81.7402 66.9071 66.904C81.7433 52.0678 81.7433 27.9291 66.9071 13.0929C59.4859 5.6779 49.7445 1.96731 40 1.96731Z" fill="#1E438A"/>
<path d="M51.5455 55.9287H39.938H28.3306C25.2461 55.9287 22.6926 58.4209 22.7294 61.5053C22.7662 64.5254 25.2461 66.9684 28.2784 66.9469C30.5833 66.9316 32.4309 65.0348 32.4309 62.7299V62.6563C32.4309 62.2511 32.1025 61.9258 31.7005 61.9258C31.2953 61.9258 30.97 62.2542 30.97 62.6563V62.7483C30.97 64.243 29.77 65.4676 28.2784 65.4829C25.995 65.5044 24.1381 63.623 24.1964 61.3304C24.2517 59.1237 26.1116 57.3896 28.3183 57.3896H39.9442H51.57C53.7767 57.3896 55.6336 59.1237 55.6919 61.3304C55.7502 63.6568 53.8351 65.5627 51.5025 65.4799C50.0508 65.4277 48.9183 64.2 48.9183 62.7483V62.6563C48.9183 62.2511 48.5899 61.9258 48.1878 61.9258C47.7827 61.9258 47.4574 62.2542 47.4574 62.6563V62.7299C47.4574 65.0348 49.305 66.9316 51.6099 66.9469C54.6422 66.9684 57.1221 64.5254 57.1589 61.5053C57.1835 58.4209 54.63 55.9287 51.5455 55.9287Z" fill="#1E438A"/>
<path d="M24.1934 51.546V39.9385V28.3311C24.1934 25.2466 21.7012 22.6931 18.6168 22.7299C15.5967 22.7667 13.1537 25.2466 13.1752 28.2789C13.1905 30.5838 15.0873 32.4314 17.3922 32.4314H17.4658C17.871 32.4314 18.1963 32.103 18.1963 31.701C18.1963 31.2958 17.8679 30.9705 17.4658 30.9705H17.3738C15.8791 30.9705 14.6545 29.7705 14.6392 28.2789C14.6177 25.9954 16.4991 24.1386 18.7917 24.1969C20.9984 24.2522 22.7325 26.1121 22.7325 28.3188V39.9447V51.5705C22.7325 53.7772 20.9984 55.6341 18.7917 55.6924C16.4991 55.7507 14.6208 53.8939 14.6392 51.6104C14.6514 50.1158 15.8791 48.9188 17.3738 48.9188H17.4658C17.871 48.9188 18.1963 48.5904 18.1963 48.1883C18.1963 47.7832 17.8679 47.4579 17.4658 47.4579H17.3922C15.0873 47.4579 13.1905 49.3055 13.1752 51.6104C13.1537 54.6427 15.5967 57.1226 18.6168 57.1594C21.6982 57.184 24.1934 54.6304 24.1934 51.546Z" fill="#1E438A"/>
<path d="M28.4533 24.0711H40.0607H51.6682C54.7343 24.0711 57.3062 21.5605 57.2694 18.4944C57.2325 15.4744 54.7527 13.0314 51.7204 13.0529C49.4155 13.0682 47.5678 14.9649 47.5678 17.2699V17.3435C47.5678 17.7486 47.8962 18.074 48.2983 18.074C48.7034 18.074 49.0287 17.7456 49.0287 17.3435V17.2514C49.0287 15.7691 50.2411 14.5322 51.7204 14.5169C54.0038 14.4954 55.8606 16.3767 55.8023 18.6694C55.7471 20.8393 53.8504 22.6102 51.6805 22.6102H40.0607H28.4349C26.265 22.6102 24.3683 20.8393 24.313 18.6694C24.2547 16.3767 26.1115 14.4984 28.395 14.5169C29.8774 14.5291 31.0866 15.7691 31.0866 17.2514V17.3435C31.0866 17.7486 31.415 18.074 31.817 18.074C32.2222 18.074 32.5475 17.7456 32.5475 17.3435V17.2699C32.5475 14.9649 30.6999 13.0682 28.395 13.0529C25.3627 13.0314 22.8828 15.4744 22.846 18.4944C22.8153 21.5605 25.3872 24.0711 28.4533 24.0711Z" fill="#1E438A"/>
<path d="M55.8055 28.4538V40.0612V51.6687C55.8055 54.7532 58.2977 57.3067 61.3822 57.2699C64.4022 57.233 66.8452 54.7532 66.8237 51.7209C66.8084 49.4159 64.9117 47.5683 62.6067 47.5683H62.5331C62.128 47.5683 61.8026 47.8967 61.8026 48.2988C61.8026 48.7039 62.131 49.0292 62.5331 49.0292H62.6252C64.1198 49.0292 65.3444 50.2293 65.3598 51.7209C65.3812 54.0043 63.4999 55.8611 61.2072 55.8028C59.0005 55.7476 57.2664 53.8877 57.2664 51.681V40.0612V28.4354C57.2664 26.2286 59.0005 24.3718 61.2072 24.3135C63.4999 24.2552 65.3782 26.112 65.3598 28.3955C65.3475 29.8901 64.1198 31.0871 62.6252 31.0871H62.5331C62.128 31.0871 61.8026 31.4155 61.8026 31.8175C61.8026 32.2227 62.131 32.548 62.5331 32.548H62.6067C64.9117 32.548 66.8084 30.7004 66.8237 28.3955C66.8452 25.3632 64.4022 22.8833 61.3822 22.8465C58.3007 22.8158 55.8055 25.3693 55.8055 28.4538Z" fill="#1E438A"/>
<path d="M36.4283 64.111V64.0681C36.4283 62.6563 36.2472 61.5729 35.351 60.5324C34.4241 59.4582 33.0522 58.8413 31.5882 58.8413H31.5514C30.5325 58.8413 29.5411 59.225 28.826 59.9524C28.3595 60.425 28.0342 61.002 27.8715 61.6312C27.761 62.0578 28.0434 62.4997 28.4792 62.5581C28.8506 62.6072 29.1943 62.3708 29.2833 62.0148C29.3938 61.5729 29.6363 61.1708 29.9923 60.8578C30.4128 60.4895 30.9652 60.3053 31.5238 60.3053H31.5821C32.6195 60.3053 33.5863 60.7381 34.2369 61.49C34.774 62.113 34.9582 62.7606 34.9582 64.0497C34.8538 65.8083 34.1755 67.1249 32.9479 67.9628C31.1402 69.1935 28.114 69.3286 25.0479 68.3188C25.0142 68.3065 24.9804 68.2973 24.9466 68.2851C18.7071 66.2011 13.7965 61.2905 11.7095 55.0479C11.6972 55.0141 11.688 54.9804 11.6757 54.9466C10.6629 51.8836 10.801 48.8575 12.0317 47.0467C12.8696 45.8159 14.1863 45.1407 15.9449 45.0364C17.2339 45.0394 17.8815 45.2205 18.5045 45.7576C19.2565 46.4083 19.6892 47.3751 19.6892 48.4124V48.4707C19.6892 49.0416 19.4959 49.6032 19.1153 50.0268C18.8115 50.3644 18.4278 50.5976 18.0043 50.7081C17.6943 50.7879 17.4518 51.0519 17.4303 51.3711C17.3966 51.8683 17.8539 52.2519 18.3296 52.1353C18.9925 51.9726 19.6002 51.6258 20.0882 51.1255C20.7849 50.4135 21.1501 49.4437 21.1501 48.4493V48.4094C21.1501 46.9454 20.5332 45.5765 19.459 44.6466C18.4186 43.7504 17.3352 43.5693 15.9234 43.5693H15.8804C13.6645 43.6952 11.9151 44.6128 10.8225 46.218C9.31862 48.4278 9.11913 51.8591 10.2885 55.3978C10.3007 55.4346 10.313 55.4684 10.3222 55.5052C12.5535 62.1806 17.8048 67.4318 24.4801 69.6631C24.517 69.6754 24.5507 69.6876 24.5876 69.6969C28.1263 70.8662 31.5576 70.6667 33.7673 69.1628C35.3848 68.0764 36.3024 66.327 36.4283 64.111Z" fill="#1E438A"/>
<path d="M43.573 64.1569V64.114C43.573 62.7022 43.7541 61.6188 44.6503 60.5783C45.5771 59.5041 46.949 58.8872 48.413 58.8872H48.4498C49.4688 58.8872 50.4601 59.2709 51.1752 59.9983C51.6417 60.4709 51.9671 61.0479 52.1297 61.6771C52.2402 62.1037 51.9579 62.5456 51.522 62.604C51.1507 62.6531 50.8069 62.4167 50.7179 62.0607C50.6074 61.6188 50.365 61.2167 50.009 60.9037C49.5885 60.5354 49.0361 60.3512 48.4775 60.3512H48.4192C47.3818 60.3512 46.415 60.784 45.7644 61.5359C45.2273 62.1589 45.0431 62.8065 45.0431 64.0956C45.1475 65.8542 45.8257 67.1708 47.0534 68.0087C48.8611 69.2394 51.8873 69.3745 54.9533 68.3647C54.9871 68.3524 55.0209 68.3432 55.0546 68.331C61.2942 66.247 66.2048 61.3364 68.2918 55.0938C68.3041 55.06 68.3133 55.0263 68.3256 54.9925C69.3384 51.9295 69.2003 48.9033 67.9695 47.0926C67.1317 45.8618 65.815 45.1866 64.0564 45.0823C62.7674 45.0853 62.1198 45.2664 61.4967 45.8035C60.7448 46.4542 60.312 47.421 60.312 48.4583V48.5166C60.312 49.0875 60.5054 49.6492 60.886 50.0727C61.1898 50.4103 61.5735 50.6435 61.997 50.754C62.307 50.8338 62.5494 51.0978 62.5709 51.417C62.6047 51.9142 62.1474 52.2978 61.6717 52.1812C61.0087 52.0185 60.4011 51.6717 59.9131 51.1714C59.2164 50.4594 58.8511 49.4896 58.8511 48.4952V48.4553C58.8511 46.9913 59.468 45.6224 60.5422 44.6925C61.5827 43.7963 62.6661 43.6152 64.0779 43.6152H64.1208C66.3368 43.7411 68.0862 44.6587 69.1788 46.2639C70.6826 48.4737 70.8821 51.905 69.7128 55.4437C69.7005 55.4805 69.6882 55.5143 69.676 55.5511C67.4447 62.2265 62.1934 67.4777 55.5181 69.709C55.4812 69.7213 55.4475 69.7335 55.4106 69.7458C51.8719 70.9152 48.4406 70.7157 46.2309 69.2118C44.6165 68.1223 43.6988 66.3729 43.573 64.1569Z" fill="#1E438A"/>
<path d="M43.573 15.8886V15.9316C43.573 17.3434 43.7541 18.4268 44.6503 19.4672C45.5771 20.5414 46.949 21.1583 48.413 21.1583H48.4498C49.4688 21.1583 50.4601 20.7746 51.1752 20.0473C51.6417 19.5746 51.9671 18.9976 52.1297 18.3684C52.2402 17.9418 51.9579 17.4999 51.522 17.4416C51.1507 17.3925 50.8069 17.6288 50.7179 17.9848C50.6074 18.4268 50.365 18.8288 50.009 19.1419C49.5885 19.5102 49.0361 19.6943 48.4775 19.6943H48.4192C47.3818 19.6943 46.415 19.2616 45.7644 18.5096C45.2273 17.8866 45.0431 17.239 45.0431 15.95C45.1475 14.1914 45.8257 12.8747 47.0534 12.0368C48.8611 10.8061 51.8873 10.6711 54.9533 11.6808C54.9871 11.6931 55.0209 11.7023 55.0546 11.7146C61.2942 13.7985 66.2048 18.7091 68.2918 24.9517C68.3041 24.9855 68.3133 25.0193 68.3256 25.053C69.3384 28.116 69.2003 31.1422 67.9695 32.953C67.1317 34.1837 65.815 34.8589 64.0564 34.9632C62.7674 34.9602 62.1198 34.7791 61.4967 34.242C60.7448 33.5913 60.312 32.6246 60.312 31.5872V31.5289C60.312 30.958 60.5054 30.3964 60.886 29.9728C61.1898 29.6352 61.5735 29.402 61.997 29.2915C62.307 29.2117 62.5494 28.9477 62.5709 28.6286C62.6047 28.1314 62.1474 27.7477 61.6717 27.8643C61.0087 28.027 60.4011 28.3738 59.9131 28.8741C59.2164 29.5861 58.8511 30.556 58.8511 31.5504V31.5903C58.8511 33.0542 59.468 34.4231 60.5422 35.353C61.5827 36.2492 62.6661 36.4303 64.0779 36.4303H64.1208C66.3368 36.3045 68.0862 35.3868 69.1788 33.7816C70.6826 31.5719 70.8821 28.1406 69.7128 24.6019C69.7005 24.565 69.6882 24.5313 69.676 24.4944C67.4447 17.8191 62.1934 12.5678 55.5181 10.3365C55.4812 10.3243 55.4475 10.312 55.4106 10.2997C51.8719 9.13036 48.4406 9.32985 46.2309 10.8337C44.6165 11.9233 43.6988 13.6727 43.573 15.8886Z" fill="#1E438A"/>
<path d="M36.4277 15.843V15.886C36.4277 17.2978 36.2466 18.3812 35.3504 19.4216C34.4236 20.4958 33.0517 21.1127 31.5877 21.1127H31.5509C30.5319 21.1127 29.5406 20.7291 28.8255 20.0017C28.359 19.5291 28.0336 18.9521 27.871 18.3229C27.7605 17.8963 28.0428 17.4543 28.4787 17.396C28.85 17.3469 29.1938 17.5832 29.2828 17.9393C29.3933 18.3812 29.6357 18.7833 29.9917 19.0963C30.4122 19.4646 30.9647 19.6488 31.5232 19.6488H31.5816C32.6189 19.6488 33.5857 19.216 34.2364 18.4641C34.7735 17.841 34.9576 17.1935 34.9576 15.9044C34.8532 14.1458 34.175 12.8292 32.9473 11.9913C31.1396 10.7606 28.1134 10.6255 25.0474 11.6353C25.0136 11.6475 24.9798 11.6567 24.9461 11.669C18.7157 13.7591 13.8051 18.6666 11.7212 24.9093C11.7089 24.943 11.6997 24.9768 11.6874 25.0105C10.6746 28.0735 10.8127 31.0997 12.0435 32.9105C12.8813 34.1412 14.198 34.8164 15.9566 34.9208C17.2456 34.9177 17.8932 34.7366 18.5163 34.1995C19.2682 33.5489 19.7009 32.5821 19.7009 31.5447V31.4864C19.7009 30.9155 19.5076 30.3539 19.127 29.9304C18.8232 29.5928 18.4395 29.3595 18.016 29.249C17.706 29.1692 17.4635 28.9053 17.4421 28.5861C17.4083 28.0889 17.8656 27.7052 18.3413 27.8219C19.0042 27.9845 19.6119 28.3313 20.0999 28.8316C20.7966 29.5436 21.1618 30.5135 21.1618 31.5079V31.5478C21.1618 33.0118 20.545 34.3806 19.4708 35.3105C18.4303 36.2067 17.3469 36.3878 15.9351 36.3878H15.8921C13.6762 36.262 11.9268 35.3443 10.8342 33.7391C9.33034 31.5294 9.13085 28.0981 10.3002 24.5594C10.3125 24.5225 10.3247 24.4888 10.3339 24.452C12.5652 17.7766 17.8165 12.5253 24.4919 10.294C24.5287 10.2818 24.5624 10.2695 24.5993 10.2572C28.138 9.08788 31.5693 9.28737 33.7791 10.7912C35.3842 11.8777 36.3019 13.6271 36.4277 15.843Z" fill="#1E438A"/>
</svg>
