<svg width="120" height="120" viewBox="0 0 120 120" fill="none" xmlns="http://www.w3.org/2000/svg">
<path d="M60 52.5C55.875 52.5 52.5 55.875 52.5 60C52.5 64.125 55.875 67.5 60 67.5C64.125 67.5 67.5 64.125 67.5 60C67.5 55.875 64.125 52.5 60 52.5Z" fill="url(#paint0_linear_1446_8960)"/>
<path d="M103.125 60H106.875C106.875 34.125 85.875 13.125 60 13.125C34.125 13.125 13.125 34.125 13.125 60C13.125 85.875 34.125 106.875 60 106.875C69.9375 106.875 79.3125 103.875 87.1875 98.0625L92.8125 103.688C93.75 104.625 95.25 105 96.5625 104.812C97.875 104.438 99 103.5 99.375 102.188L104.625 86.625C105.375 84.375 104.812 82.125 103.125 80.4375C102 79.3125 100.5 78.5625 98.8125 78.5625C98.25 78.5625 97.5 78.75 96.9375 78.9375L81.375 84.1875C80.0625 84.5625 79.125 85.6875 78.75 87C78.375 88.3125 78.75 89.8125 79.875 90.75L84.5625 95.4375C77.25 100.5 68.8125 103.125 60 103.125C36.1875 103.125 16.875 83.8125 16.875 60C16.875 36.1875 36.1875 16.875 60 16.875C83.8125 16.875 103.125 36.1875 103.125 60ZM82.5 88.125C82.5 88.125 82.5 88.125 82.5 87.9375C82.5 87.75 82.6875 87.75 82.6875 87.75L98.25 82.5C99.1875 82.3125 99.9375 82.5 100.688 83.0625C101.25 83.625 101.625 84.5625 101.25 85.5L96 101.062C96 101.062 96 101.25 95.8125 101.25H95.625L82.5 88.125Z" fill="url(#paint1_linear_1446_8960)"/>
<path d="M42.5625 80.0625L54.75 67.875C56.25 68.8125 58.125 69.375 60 69.375C65.25 69.375 69.375 65.25 69.375 60C69.375 55.5 66.1875 51.75 61.875 50.8125V35.625H58.125V50.8125C53.8125 51.75 50.625 55.5 50.625 60C50.625 61.875 51.1875 63.75 52.125 65.25L39.9375 77.4375L42.5625 80.0625ZM60 54.375C63.1875 54.375 65.625 56.8125 65.625 60C65.625 63.1875 63.1875 65.625 60 65.625C56.8125 65.625 54.375 63.1875 54.375 60C54.375 56.8125 56.8125 54.375 60 54.375Z" fill="url(#paint2_linear_1446_8960)"/>
<path d="M60 20.625C38.25 20.625 20.625 38.25 20.625 60H24.375C24.375 40.3125 40.3125 24.375 60 24.375V20.625Z" fill="url(#paint3_linear_1446_8960)"/>
<path d="M27.5625 14.4375L24.9375 11.8125L11.8125 24.9375L14.4375 27.5625L27.5625 14.4375Z" fill="url(#paint4_linear_1446_8960)"/>
<path d="M108.188 24.9375L95.0625 11.8125L92.4375 14.4375L105.562 27.5625L108.188 24.9375Z" fill="url(#paint5_linear_1446_8960)"/>
<defs>
<linearGradient id="paint0_linear_1446_8960" x1="60" y1="46.4063" x2="60" y2="72.1912" gradientUnits="userSpaceOnUse">
<stop stop-color="#6DC7FF"/>
<stop offset="1" stop-color="#E6ABFF"/>
</linearGradient>
<linearGradient id="paint1_linear_1446_8960" x1="60" y1="10.4925" x2="60" y2="105.997" gradientUnits="userSpaceOnUse">
<stop stop-color="#1A6DFF"/>
<stop offset="1" stop-color="#C822FF"/>
</linearGradient>
<linearGradient id="paint2_linear_1446_8960" x1="54.6488" y1="10.4925" x2="54.6488" y2="105.998" gradientUnits="userSpaceOnUse">
<stop stop-color="#1A6DFF"/>
<stop offset="1" stop-color="#C822FF"/>
</linearGradient>
<linearGradient id="paint3_linear_1446_8960" x1="40.3125" y1="10.4925" x2="40.3125" y2="105.998" gradientUnits="userSpaceOnUse">
<stop stop-color="#1A6DFF"/>
<stop offset="1" stop-color="#C822FF"/>
</linearGradient>
<linearGradient id="paint4_linear_1446_8960" x1="19.6875" y1="10.4925" x2="19.6875" y2="105.997" gradientUnits="userSpaceOnUse">
<stop stop-color="#1A6DFF"/>
<stop offset="1" stop-color="#C822FF"/>
</linearGradient>
<linearGradient id="paint5_linear_1446_8960" x1="100.313" y1="10.4925" x2="100.313" y2="105.997" gradientUnits="userSpaceOnUse">
<stop stop-color="#1A6DFF"/>
<stop offset="1" stop-color="#C822FF"/>
</linearGradient>
</defs>
</svg>
