<svg width="372" height="372" viewBox="0 0 372 372" fill="none" xmlns="http://www.w3.org/2000/svg">
<path d="M186 372C158.173 372 130.701 365.756 105.608 353.729C80.5143 341.702 58.4393 324.198 41.0093 302.506C23.5792 280.815 11.2383 255.489 4.89583 228.394C-1.4466 201.3 -1.62897 173.128 4.36224 145.954L93.0465 165.506C89.9805 179.413 90.0738 193.83 93.3196 207.695C96.5653 221.561 102.881 234.522 111.801 245.622C120.721 256.723 132.017 265.681 144.859 271.836C157.701 277.991 171.76 281.186 186 281.186L186 372Z" fill="#BE88F4"/>
<path d="M208.21 370.669C240.616 366.772 271.425 354.416 297.544 334.842C323.663 315.268 344.171 289.166 357.009 259.158L273.63 223.488C267.051 238.866 256.542 252.241 243.158 262.271C229.775 272.301 213.987 278.633 197.381 280.63L208.21 370.669Z" fill="#6F78FA"/>
<path d="M364.597 237.952C377.752 192.729 373.261 144.2 352.032 102.158C330.802 60.1174 294.415 27.6953 250.213 11.4358L218.905 96.5481C241.555 104.88 260.201 121.494 271.08 143.037C281.958 164.58 284.259 189.448 277.519 212.622L364.597 237.952Z" fill="#5D92FF"/>
<path d="M227.371 4.65933C199.475 -1.70479 170.487 -1.54742 142.663 5.11919L163.793 93.3113C178.051 89.8951 192.905 89.8145 207.2 93.0756L227.371 4.65933Z" fill="#87ABF4"/>
<path d="M123.397 10.852C112.542 14.7317 102.072 19.6121 92.1209 25.43L137.894 103.719C142.993 100.738 148.358 98.2371 153.92 96.249L123.397 10.852Z" fill="#FF59E3"/>
<path d="M72.7496 38.4522C43.931 60.572 22.2209 90.647 10.2996 124.964L95.9659 154.724C102.075 137.138 113.2 121.727 127.967 110.392L72.7496 38.4522Z" fill="#FB83E6"/>
</svg>
