<svg width="120" height="120" viewBox="0 0 120 120" fill="none" xmlns="http://www.w3.org/2000/svg">
<path d="M60 69.375C60 70.41 59.16 71.25 58.125 71.25H50.625C49.59 71.25 48.75 70.41 48.75 69.375V61.875C48.75 60.84 49.59 60 50.625 60H58.125C59.16 60 60 60.84 60 61.875V69.375Z" fill="url(#paint0_linear_1446_8961)"/>
<path d="M90 63.75H82.5C80.4319 63.75 78.75 65.4319 78.75 67.5V90H30V41.25H52.5C54.5681 41.25 56.25 39.5681 56.25 37.5V30C56.25 27.9319 54.5681 26.25 52.5 26.25H24.375C19.2056 26.25 15 30.4556 15 35.625V95.625C15 100.794 19.2056 105 24.375 105H84.375C89.5444 105 93.75 100.794 93.75 95.625V67.5C93.75 65.4319 92.0681 63.75 90 63.75ZM90 95.625C90 98.7262 87.4762 101.25 84.375 101.25H24.375C21.2737 101.25 18.75 98.7262 18.75 95.625V35.625C18.75 32.5237 21.2737 30 24.375 30H52.5V37.5H30C27.9319 37.5 26.25 39.1819 26.25 41.25V90C26.25 92.0681 27.9319 93.75 30 93.75H78.75C80.8181 93.75 82.5 92.0681 82.5 90V67.5H90V95.625Z" fill="url(#paint1_linear_1446_8961)"/>
<path d="M95.625 15H71.25C69.1819 15 67.5 16.6819 67.5 18.75V26.25C67.5 28.3181 69.1819 30 71.25 30H90V48.75C90 50.8181 91.6819 52.5 93.75 52.5H101.25C103.318 52.5 105 50.8181 105 48.75V24.375C105 19.2056 100.794 15 95.625 15ZM101.25 48.75H93.75V30C93.75 27.9319 92.0681 26.25 90 26.25H71.25V18.75H95.625C98.7262 18.75 101.25 21.2737 101.25 24.375V48.75Z" fill="url(#paint2_linear_1446_8961)"/>
<path d="M63.75 52.5H45C42.9319 52.5 41.25 54.1819 41.25 56.25V75C41.25 77.0681 42.9319 78.75 45 78.75H63.75C65.8181 78.75 67.5 77.0681 67.5 75V56.25C67.5 55.9163 67.4419 55.5994 67.3594 55.2919L78.75 43.9012V56.25H82.5V41.25C82.5 39.1819 80.8181 37.5 78.75 37.5H63.75V41.25H76.0987L64.7081 52.6387C64.4006 52.5581 64.0837 52.5 63.75 52.5ZM63.75 75H45V56.25H63.75V75Z" fill="url(#paint3_linear_1446_8961)"/>
<defs>
<linearGradient id="paint0_linear_1446_8961" x1="54.375" y1="59.0625" x2="54.375" y2="72.1875" gradientUnits="userSpaceOnUse">
<stop stop-color="#6DC7FF"/>
<stop offset="1" stop-color="#E6ABFF"/>
</linearGradient>
<linearGradient id="paint1_linear_1446_8961" x1="54.375" y1="13.4381" x2="54.375" y2="109.08" gradientUnits="userSpaceOnUse">
<stop stop-color="#1A6DFF"/>
<stop offset="1" stop-color="#C822FF"/>
</linearGradient>
<linearGradient id="paint2_linear_1446_8961" x1="86.25" y1="13.4381" x2="86.25" y2="109.08" gradientUnits="userSpaceOnUse">
<stop stop-color="#1A6DFF"/>
<stop offset="1" stop-color="#C822FF"/>
</linearGradient>
<linearGradient id="paint3_linear_1446_8961" x1="61.875" y1="13.4381" x2="61.875" y2="109.08" gradientUnits="userSpaceOnUse">
<stop stop-color="#1A6DFF"/>
<stop offset="1" stop-color="#C822FF"/>
</linearGradient>
</defs>
</svg>
