<svg width="159" height="159" viewBox="0 0 159 159" fill="none" xmlns="http://www.w3.org/2000/svg">
<path d="M79.375 156.754C122.108 156.754 156.75 122.111 156.75 79.3771C156.75 36.6429 122.108 2 79.375 2C36.642 2 2 36.6429 2 79.3771C2 122.111 36.642 156.754 79.375 156.754Z" fill="#1B1B1B" stroke="white" stroke-width="4"/>
<path fill-rule="evenodd" clip-rule="evenodd" d="M104.498 57.2798C105.692 58.329 107.631 58.1979 108.526 57.0175C109.421 56.0995 109.272 54.6569 108.228 53.87C98.3819 45.6077 89.5802 41.411 74.9606 42.0667C59.595 42.7224 46.0196 49.8044 46.9147 64.7552C47.6606 78.0011 62.2802 82.8536 75.1097 87.1815C84.9556 90.4601 93.6081 93.3454 94.0556 99.5093C94.5032 106.329 86.5966 110.395 79.7343 110.788C66.7556 111.444 59.1475 107.378 50.6442 100.165C49.5999 99.247 47.9589 99.247 46.9147 100.034C45.7212 100.952 45.7212 102.526 46.7655 103.575C56.313 111.968 66.1589 116.165 80.4802 115.509C94.8015 114.591 112.405 107.509 111.51 92.5585C110.764 79.5749 96.7409 74.7224 84.0606 70.5257C73.6179 66.9847 63.9212 63.7061 63.4737 56.2306C63.1753 50.8536 70.4852 46.9192 75.7065 46.6569C88.3868 46.1323 96.2934 50.0667 104.498 57.2798ZM106.139 92.8208C106.139 98.5913 102.559 103.575 97.1884 106.46L96.8901 106.329C98.8294 103.968 99.1278 100.952 99.1278 98.0667C99.1278 89.5421 88.536 86.2634 77.3474 82.7224C64.9655 78.788 51.9868 74.7224 51.9868 63.1815C51.9868 57.9356 54.672 52.2962 59.8934 49.6733L60.0425 49.9356C58.6999 52.4274 58.1032 55.1815 58.1032 57.9356C58.1032 67.3782 69.8884 71.1815 81.8229 75.1159C94.0556 79.0503 106.139 82.9847 106.139 92.8208Z" fill="white"/>
<path d="M79.3 141.59C113.663 141.59 141.6 113.656 141.6 79.2951C141.6 44.9344 113.663 17 79.3 17C44.9366 17 17 44.9344 17 79.2951C17 113.656 44.9366 141.59 79.3 141.59Z" stroke="white" stroke-width="2" stroke-linecap="round"/>
</svg>
