<svg width="120" height="120" viewBox="0 0 120 120" fill="none" xmlns="http://www.w3.org/2000/svg">
<path d="M54.375 39.375C52.3069 39.375 50.625 41.0569 50.625 43.125C50.625 45.1931 52.3069 46.875 54.375 46.875C56.4431 46.875 58.125 45.1931 58.125 43.125C58.125 41.0569 56.4431 39.375 54.375 39.375Z" fill="url(#paint0_linear_1446_8951)"/>
<path d="M54.375 52.5C52.3069 52.5 50.625 54.1819 50.625 56.25C50.625 58.3181 52.3069 60 54.375 60C56.4431 60 58.125 58.3181 58.125 56.25C58.125 54.1819 56.4431 52.5 54.375 52.5Z" fill="url(#paint1_linear_1446_8951)"/>
<path d="M54.375 65.625C52.3069 65.625 50.625 67.3069 50.625 69.375C50.625 71.4431 52.3069 73.125 54.375 73.125C56.4431 73.125 58.125 71.4431 58.125 69.375C58.125 67.3069 56.4431 65.625 54.375 65.625Z" fill="url(#paint2_linear_1446_8951)"/>
<path d="M61.875 41.25H84.375V45H61.875V41.25Z" fill="url(#paint3_linear_1446_8951)"/>
<path d="M61.875 54.375H84.375V58.125H61.875V54.375Z" fill="url(#paint4_linear_1446_8951)"/>
<path d="M61.875 67.5H84.375V71.25H61.875V67.5Z" fill="url(#paint5_linear_1446_8951)"/>
<path d="M99.6019 27.5756L84.9244 12.8981C83.8631 11.835 82.4494 11.25 80.9456 11.25H43.125C40.0238 11.25 37.5 13.7737 37.5 16.875V26.25H24.375C21.2737 26.25 18.75 28.7738 18.75 31.875V103.125C18.75 106.226 21.2737 108.75 24.375 108.75H76.875C79.9762 108.75 82.5 106.226 82.5 103.125V93.75H95.625C98.7262 93.75 101.25 91.2262 101.25 88.125V31.5544C101.25 30.0506 100.665 28.6369 99.6019 27.5756ZM84.375 17.6512L94.8487 28.125H86.25C85.2169 28.125 84.375 27.2831 84.375 26.25V17.6512ZM95.625 90H43.125C42.0919 90 41.25 89.1581 41.25 88.125V45H37.5V88.125C37.5 91.2262 40.0238 93.75 43.125 93.75H78.75V103.125C78.75 104.158 77.9081 105 76.875 105H24.375C23.3419 105 22.5 104.158 22.5 103.125V31.875C22.5 30.8419 23.3419 30 24.375 30H41.25V16.875C41.25 15.8419 42.0919 15 43.125 15H80.625V26.25C80.625 29.3512 83.1488 31.875 86.25 31.875H97.5V88.125C97.5 89.1581 96.6581 90 95.625 90Z" fill="url(#paint6_linear_1446_8951)"/>
<defs>
<linearGradient id="paint0_linear_1446_8951" x1="54.375" y1="39.375" x2="54.375" y2="46.875" gradientUnits="userSpaceOnUse">
<stop stop-color="#6DC7FF"/>
<stop offset="1" stop-color="#E6ABFF"/>
</linearGradient>
<linearGradient id="paint1_linear_1446_8951" x1="54.375" y1="52.5" x2="54.375" y2="60" gradientUnits="userSpaceOnUse">
<stop stop-color="#6DC7FF"/>
<stop offset="1" stop-color="#E6ABFF"/>
</linearGradient>
<linearGradient id="paint2_linear_1446_8951" x1="54.375" y1="65.625" x2="54.375" y2="73.125" gradientUnits="userSpaceOnUse">
<stop stop-color="#6DC7FF"/>
<stop offset="1" stop-color="#E6ABFF"/>
</linearGradient>
<linearGradient id="paint3_linear_1446_8951" x1="73.125" y1="41.25" x2="73.125" y2="45" gradientUnits="userSpaceOnUse">
<stop stop-color="#6DC7FF"/>
<stop offset="1" stop-color="#E6ABFF"/>
</linearGradient>
<linearGradient id="paint4_linear_1446_8951" x1="73.125" y1="54.375" x2="73.125" y2="58.125" gradientUnits="userSpaceOnUse">
<stop stop-color="#6DC7FF"/>
<stop offset="1" stop-color="#E6ABFF"/>
</linearGradient>
<linearGradient id="paint5_linear_1446_8951" x1="73.125" y1="67.5" x2="73.125" y2="71.25" gradientUnits="userSpaceOnUse">
<stop stop-color="#6DC7FF"/>
<stop offset="1" stop-color="#E6ABFF"/>
</linearGradient>
<linearGradient id="paint6_linear_1446_8951" x1="60" y1="10.9369" x2="60" y2="109.376" gradientUnits="userSpaceOnUse">
<stop stop-color="#1A6DFF"/>
<stop offset="1" stop-color="#C822FF"/>
</linearGradient>
</defs>
</svg>
