<svg width="120" height="120" viewBox="0 0 120 120" fill="none" xmlns="http://www.w3.org/2000/svg">
<g clip-path="url(#clip0_1446_8952)">
<path d="M93.75 50.625C94.785 50.625 95.625 49.785 95.625 48.75V45H100.5C102.981 45 105 42.9806 105 40.5V19.5C105 17.0194 102.981 15 100.5 15H80.625C77.5237 15 75 17.5237 75 20.625V24.375H71.25C70.215 24.375 69.375 25.215 69.375 26.25V28.125H50.625V26.25C50.625 25.215 49.785 24.375 48.75 24.375H45V20.625C45 17.5237 42.4763 15 39.375 15H20.625C17.5237 15 15 17.5237 15 20.625V39.375C15 42.4763 17.5237 45 20.625 45H24.375V48.75C24.375 49.785 25.215 50.625 26.25 50.625H28.125V69.375H26.25C25.215 69.375 24.375 70.215 24.375 71.25V75H20.625C17.5237 75 15 77.5237 15 80.625V100.5C15 102.981 17.0194 105 19.5 105H40.5C42.9806 105 45 102.981 45 100.5V95.625H48.75C49.785 95.625 50.625 94.785 50.625 93.75V91.875H69.375V93.75C69.375 94.785 70.215 95.625 71.25 95.625H75V100.5C75 102.981 77.0194 105 79.5 105H100.5C102.981 105 105 102.981 105 100.5V79.5C105 77.0194 102.981 75 100.5 75H95.625V71.25C95.625 70.215 94.785 69.375 93.75 69.375H91.875V50.625H93.75ZM91.875 46.875H88.125V45H91.875V46.875ZM78.75 20.625C78.75 19.5919 79.5919 18.75 80.625 18.75H100.5C100.914 18.75 101.25 19.0856 101.25 19.5V40.5C101.25 40.9144 100.914 41.25 100.5 41.25H79.5C79.0856 41.25 78.75 40.9144 78.75 40.5V20.625ZM73.125 28.125H75V31.875H73.125V28.125ZM46.875 28.125V31.875H45V28.125H46.875ZM18.75 39.375V20.625C18.75 19.5919 19.5919 18.75 20.625 18.75H39.375C40.4081 18.75 41.25 19.5919 41.25 20.625V39.375C41.25 40.4081 40.4081 41.25 39.375 41.25H20.625C19.5919 41.25 18.75 40.4081 18.75 39.375ZM31.875 45V46.875H28.125V45H31.875ZM28.125 73.125H31.875V75H28.125V73.125ZM41.25 100.5C41.25 100.914 40.9144 101.25 40.5 101.25H19.5C19.0856 101.25 18.75 100.914 18.75 100.5V80.625C18.75 79.5919 19.5919 78.75 20.625 78.75H40.5C40.9144 78.75 41.25 79.0856 41.25 79.5V100.5ZM46.875 91.875H45V88.125H46.875V91.875ZM73.125 91.875V88.125H75V91.875H73.125ZM101.25 79.5V100.5C101.25 100.914 100.914 101.25 100.5 101.25H79.5C79.0856 101.25 78.75 100.914 78.75 100.5V80.625C78.75 79.5919 79.5919 78.75 80.625 78.75H100.5C100.914 78.75 101.25 79.0856 101.25 79.5ZM88.125 75V73.125H91.875V75H88.125ZM88.125 69.375H86.25C85.215 69.375 84.375 70.215 84.375 71.25V75H80.625C77.5237 75 75 77.5237 75 80.625V84.375H71.25C70.215 84.375 69.375 85.215 69.375 86.25V88.125H50.625V86.25C50.625 85.215 49.785 84.375 48.75 84.375H45V79.5C45 77.0194 42.9806 75 40.5 75H35.625V71.25C35.625 70.215 34.785 69.375 33.75 69.375H31.875V50.625H33.75C34.785 50.625 35.625 49.785 35.625 48.75V45H39.375C42.4763 45 45 42.4763 45 39.375V35.625H48.75C49.785 35.625 50.625 34.785 50.625 33.75V31.875H69.375V33.75C69.375 34.785 70.215 35.625 71.25 35.625H75V40.5C75 42.9806 77.0194 45 79.5 45H84.375V48.75C84.375 49.785 85.215 50.625 86.25 50.625H88.125V69.375Z" fill="url(#paint0_linear_1446_8952)"/>
<path d="M34.0181 35.625H25.9819C25.095 35.625 24.375 34.905 24.375 34.0181V25.9819C24.375 25.095 25.095 24.375 25.9819 24.375H34.0181C34.905 24.375 35.625 25.095 35.625 25.9819V34.0181C35.625 34.905 34.905 35.625 34.0181 35.625Z" fill="url(#paint1_linear_1446_8952)"/>
<path d="M94.0181 35.625H85.9819C85.095 35.625 84.375 34.905 84.375 34.0181V25.9819C84.375 25.095 85.095 24.375 85.9819 24.375H94.0181C94.905 24.375 95.625 25.095 95.625 25.9819V34.0181C95.625 34.905 94.905 35.625 94.0181 35.625Z" fill="url(#paint2_linear_1446_8952)"/>
<path d="M34.0181 95.625H25.9819C25.095 95.625 24.375 94.905 24.375 94.0181V85.9819C24.375 85.095 25.095 84.375 25.9819 84.375H34.0181C34.905 84.375 35.625 85.095 35.625 85.9819V94.0181C35.625 94.905 34.905 95.625 34.0181 95.625Z" fill="url(#paint3_linear_1446_8952)"/>
<path d="M94.0181 95.625H85.9819C85.095 95.625 84.375 94.905 84.375 94.0181V85.9819C84.375 85.095 85.095 84.375 85.9819 84.375H94.0181C94.905 84.375 95.625 85.095 95.625 85.9819V94.0181C95.625 94.905 94.905 95.625 94.0181 95.625Z" fill="url(#paint4_linear_1446_8952)"/>
</g>
<defs>
<linearGradient id="paint0_linear_1446_8952" x1="60" y1="17.4337" x2="60" y2="103.38" gradientUnits="userSpaceOnUse">
<stop stop-color="#1A6DFF"/>
<stop offset="1" stop-color="#C822FF"/>
</linearGradient>
<linearGradient id="paint1_linear_1446_8952" x1="30" y1="24.615" x2="30" y2="34.8525" gradientUnits="userSpaceOnUse">
<stop stop-color="#6DC7FF"/>
<stop offset="1" stop-color="#E6ABFF"/>
</linearGradient>
<linearGradient id="paint2_linear_1446_8952" x1="90" y1="24.615" x2="90" y2="34.8525" gradientUnits="userSpaceOnUse">
<stop stop-color="#6DC7FF"/>
<stop offset="1" stop-color="#E6ABFF"/>
</linearGradient>
<linearGradient id="paint3_linear_1446_8952" x1="30" y1="84.2156" x2="30" y2="94.6181" gradientUnits="userSpaceOnUse">
<stop stop-color="#6DC7FF"/>
<stop offset="1" stop-color="#E6ABFF"/>
</linearGradient>
<linearGradient id="paint4_linear_1446_8952" x1="90" y1="84.2156" x2="90" y2="94.6181" gradientUnits="userSpaceOnUse">
<stop stop-color="#6DC7FF"/>
<stop offset="1" stop-color="#E6ABFF"/>
</linearGradient>
<clipPath id="clip0_1446_8952">
<rect width="120" height="120" fill="white"/>
</clipPath>
</defs>
</svg>
