<svg width="120" height="120" viewBox="0 0 120 120" fill="none" xmlns="http://www.w3.org/2000/svg">
<path d="M60 108.75C33.1181 108.75 11.25 86.8819 11.25 60C11.25 33.1181 33.1181 11.25 60 11.25C86.8819 11.25 108.75 33.1181 108.75 60C108.75 86.8819 86.8819 108.75 60 108.75ZM60 15C35.1881 15 15 35.1881 15 60C15 84.8119 35.1881 105 60 105C84.8119 105 105 84.8119 105 60C105 35.1881 84.8119 15 60 15Z" fill="url(#paint0_linear_1446_8953)"/>
<path d="M60 101.25C37.2544 101.25 18.75 82.7456 18.75 60C18.75 37.2544 37.2544 18.75 60 18.75C82.7456 18.75 101.25 37.2544 101.25 60C101.25 82.7456 82.7456 101.25 60 101.25ZM60 22.5C39.3225 22.5 22.5 39.3225 22.5 60C22.5 80.6775 39.3225 97.5 60 97.5C80.6775 97.5 97.5 80.6775 97.5 60C97.5 39.3225 80.6775 22.5 60 22.5Z" fill="url(#paint1_linear_1446_8953)"/>
<path d="M72.075 61.8094C70.8337 60.4425 69.2831 59.4188 67.5806 58.8C69.5831 56.985 70.9331 54.5025 71.1975 51.7256C71.4993 48.5588 70.455 45.3994 68.3268 43.0612C67.0668 41.6756 65.4843 40.65 63.7518 40.035V35.625H60.0018V39.375H56.2518V35.625H52.5018V39.375H48.7518C46.6837 39.375 45.0018 41.0569 45.0018 43.125V76.875C45.0018 78.9431 46.6837 80.625 48.7518 80.625H52.5018V84.375H56.2518V80.625H60.0018V84.375H63.7518V80.6063C69.5381 80.4094 74.4187 76.0369 74.9493 70.4737C75.2493 67.305 74.2031 64.1475 72.075 61.8094ZM48.75 43.125H60C62.1093 43.125 64.1306 44.0212 65.5518 45.5812C66.99 47.1656 67.6687 49.2187 67.4662 51.3694C67.1025 55.1569 63.6468 58.125 59.5968 58.125H48.75V43.125ZM63.3468 76.875H48.75V61.875H59.5968C59.7318 61.875 59.8668 61.8731 60 61.8675L63.75 61.875C65.8593 61.875 67.8806 62.7713 69.3018 64.3313C70.74 65.9156 71.4187 67.9688 71.2162 70.1194C70.8525 73.9069 67.3968 76.875 63.3468 76.875Z" fill="url(#paint2_linear_1446_8953)"/>
<defs>
<linearGradient id="paint0_linear_1446_8953" x1="60" y1="13.4381" x2="60" y2="106.384" gradientUnits="userSpaceOnUse">
<stop stop-color="#1A6DFF"/>
<stop offset="1" stop-color="#C822FF"/>
</linearGradient>
<linearGradient id="paint1_linear_1446_8953" x1="60" y1="13.4381" x2="60" y2="106.384" gradientUnits="userSpaceOnUse">
<stop stop-color="#1A6DFF"/>
<stop offset="1" stop-color="#C822FF"/>
</linearGradient>
<linearGradient id="paint2_linear_1446_8953" x1="60" y1="33.75" x2="60" y2="87.8212" gradientUnits="userSpaceOnUse">
<stop stop-color="#6DC7FF"/>
<stop offset="1" stop-color="#E6ABFF"/>
</linearGradient>
</defs>
</svg>
