<svg width="120" height="120" viewBox="0 0 120 120" fill="none" xmlns="http://www.w3.org/2000/svg">
<path d="M73.125 90.0059L78.75 95.6309L93.75 84.3809L88.125 78.7559L73.125 90.0059Z" fill="url(#paint0_linear_1446_8950)"/>
<path d="M46.875 18.7502C33.435 18.7502 22.5 29.6852 22.5 43.1252C22.5 56.5652 33.435 67.5002 46.875 67.5002C60.315 67.5002 71.25 56.5652 71.25 43.1252C71.25 29.6852 60.315 18.7502 46.875 18.7502ZM46.875 63.7502C41.3869 63.7502 36.4031 61.5809 32.7037 58.0727L37.5 53.2765L34.8488 50.6252L30.225 55.249C27.7369 51.8402 26.25 47.659 26.25 43.1252C26.25 31.7534 35.5031 22.5002 46.875 22.5002C51.4087 22.5002 55.59 23.9871 58.9987 26.4752L54.375 31.099L57.0262 33.7502L61.8225 28.954C65.3306 32.6534 67.5 37.6371 67.5 43.1252C67.5 54.4971 58.2469 63.7502 46.875 63.7502ZM102.69 91.0446L86.2819 72.5515C84.9337 71.0309 82.5431 70.8265 80.9456 72.0977L76.2863 75.7971L68.5537 66.4352C74.8088 60.6096 78.75 52.3334 78.75 43.1309C78.75 25.5546 64.4512 11.2559 46.875 11.2559C29.2988 11.2559 15 25.5546 15 43.1309C15 60.7071 29.2988 75.0059 46.875 75.0059C53.9044 75.0059 60.3862 72.6921 65.6625 68.824L73.3462 78.1277L68.9119 81.6471C68.0981 82.2921 67.6031 83.2052 67.5131 84.2215C67.425 85.2321 67.7513 86.2109 68.4319 86.9777L84.8419 105.473C86.7562 107.629 89.5069 108.743 92.2744 108.743C94.4663 108.743 96.6694 108.043 98.475 106.611L101.486 104.224C103.511 102.617 104.747 100.348 104.964 97.8377C105.184 95.3571 104.374 92.944 102.69 91.0446ZM46.875 71.2559C31.3669 71.2559 18.75 58.6409 18.75 43.1309C18.75 27.6227 31.3669 15.0059 46.875 15.0059C62.3831 15.0059 75 27.6227 75 43.1309C75 58.639 62.3831 71.2559 46.875 71.2559ZM71.2425 84.5852L83.2781 75.034C83.3306 74.9871 83.4431 75.0021 83.4731 75.0396L85.9463 77.8259L73.8056 87.4596L71.2425 84.5852ZM76.3069 90.2646L88.44 80.6365L91.2 83.7471L79.0744 93.3696L76.3069 90.2646ZM99.1556 101.288L96.1462 103.675C93.5944 105.698 89.7844 105.39 87.6488 102.983L81.5756 96.1727L93.6938 86.5577L99.885 93.5365C100.879 94.6559 101.357 96.0696 101.231 97.5152C101.102 98.9852 100.363 100.326 99.1556 101.288Z" fill="url(#paint1_linear_1446_8950)"/>
<path d="M53.1134 39.9331C52.1494 39.6955 51.1504 39.7038 50.205 39.9384C50.5542 38.5277 50.4119 37.0149 49.6969 35.6964C48.8816 34.1926 47.4678 33.096 45.8167 32.691C44.8388 32.4507 43.8249 32.4677 42.8673 32.713L41.5444 30.745L39.8709 31.8699L40.9958 33.5434L39.3224 34.6683L38.1975 32.9948L36.524 34.1198L37.6489 35.7932L35.9755 36.9182C35.0526 37.5385 34.8066 38.7936 35.427 39.7165L45.5513 54.7776C46.1717 55.7005 47.4268 55.9465 48.3497 55.3261L50.0231 54.2011L51.1481 55.8746L52.8215 54.7497L51.6966 53.0762L53.37 51.9513L54.495 53.6247L56.1684 52.4998L55.0379 50.818C57.5609 48.9944 58.4273 45.5791 56.9952 42.9373C56.1785 41.4333 54.7645 40.3381 53.1134 39.9331ZM37.0996 38.5922L42.1199 35.2174C43.0612 34.5846 44.2321 34.3782 45.3343 34.648C46.4513 34.9237 47.3701 35.6363 47.9249 36.6567C48.8988 38.456 48.2471 40.8172 46.4397 42.0321L41.5993 45.286L37.0996 38.5922ZM53.7378 49.2744L47.2239 53.6532L42.7242 46.9594L47.5647 43.7055C47.6249 43.6651 47.6846 43.6237 47.7423 43.5813L49.418 42.4597C50.3593 41.8269 51.5302 41.6205 52.6324 41.8903C53.7494 42.166 54.6682 42.8786 55.223 43.899C56.1968 45.6983 55.5451 48.0595 53.7378 49.2744Z" fill="url(#paint2_linear_1446_8950)"/>
<defs>
<linearGradient id="paint0_linear_1446_8950" x1="83.4375" y1="80.3196" x2="83.4375" y2="95.644" gradientUnits="userSpaceOnUse">
<stop stop-color="#6DC7FF"/>
<stop offset="1" stop-color="#E6ABFF"/>
</linearGradient>
<linearGradient id="paint1_linear_1446_8950" x1="60" y1="11.2559" x2="60" y2="108.743" gradientUnits="userSpaceOnUse">
<stop stop-color="#1A6DFF"/>
<stop offset="1" stop-color="#C822FF"/>
</linearGradient>
<linearGradient id="paint2_linear_1446_8950" x1="39.3076" y1="31.0338" x2="55.5279" y2="55.1632" gradientUnits="userSpaceOnUse">
<stop stop-color="#6DC7FF"/>
<stop offset="1" stop-color="#E6ABFF"/>
</linearGradient>
</defs>
</svg>
