<svg width="34" height="34" viewBox="0 0 34 34" fill="none" xmlns="http://www.w3.org/2000/svg">
<path fill-rule="evenodd" clip-rule="evenodd" d="M15.5241 18.4763C15.9311 18.8832 16.4659 19.0867 17.0007 19.0867C17.5355 19.0867 18.0703 18.8832 18.4772 18.4763C19.2912 17.6623 19.2912 16.3371 18.4772 15.5231C17.6633 14.7092 16.3381 14.7092 15.5241 15.5231C14.7102 16.3371 14.7102 17.6623 15.5241 18.4763ZM15.8463 15.8453C16.1646 15.5271 16.5833 15.3679 17.0007 15.3679C17.4181 15.3679 17.8368 15.5271 18.1551 15.8453C18.7916 16.4819 18.7916 17.5175 18.1551 18.1541C17.5185 18.7906 16.4828 18.7906 15.8463 18.1541C15.2098 17.5175 15.2098 16.4819 15.8463 15.8453Z" fill="#1E438A"/>
<path fill-rule="evenodd" clip-rule="evenodd" d="M14.5485 19.452C15.2033 20.1068 16.0747 20.4681 17.0008 20.4681C17.9269 20.4681 18.7982 20.1068 19.453 19.452C20.1078 18.7972 20.4691 17.9259 20.4691 16.9998C20.4691 16.0737 20.1078 15.2024 19.453 14.5476C18.7982 13.8928 17.9269 13.5314 17.0008 13.5314C16.0747 13.5314 15.2033 13.8928 14.5485 14.5476C13.8937 15.2024 13.5324 16.0737 13.5324 16.9998C13.5324 17.9259 13.8937 18.7972 14.5485 19.452ZM14.9294 14.9284C15.4825 14.3754 16.2181 14.0702 17.0008 14.0702C17.7834 14.0702 18.5191 14.3754 19.0721 14.9284C19.6252 15.4815 19.9304 16.2172 19.9304 16.9998C19.9304 17.7824 19.6252 18.5181 19.0721 19.0712C18.5191 19.6242 17.7834 19.9294 17.0008 19.9294C16.2181 19.9294 15.4825 19.6242 14.9294 19.0712C14.3764 18.5181 14.0711 17.7824 14.0711 16.9998C14.0711 16.2172 14.3764 15.4815 14.9294 14.9284Z" fill="#1E438A"/>
<path fill-rule="evenodd" clip-rule="evenodd" d="M16.9995 21.8886C15.6938 21.8886 14.4651 21.3799 13.5416 20.4564C11.6346 18.5494 11.6346 15.4476 13.5416 13.5406C15.4486 11.6336 18.5504 11.6336 20.4574 13.5406C21.3809 14.4641 21.8896 15.6928 21.8896 16.9985C21.8896 18.3042 21.3809 19.5329 20.4574 20.4564C19.5339 21.3799 18.3052 21.8886 16.9995 21.8886ZM16.9995 12.7319C15.9064 12.7319 14.8134 13.148 13.9812 13.9802C12.3168 15.6446 12.3168 18.3525 13.9812 20.0169C14.7873 20.823 15.8595 21.2678 16.9995 21.2678C18.1395 21.2678 19.2117 20.8243 20.0178 20.0169C20.8239 19.2108 21.2687 18.1385 21.2687 16.9985C21.2687 15.8585 20.8252 14.7863 20.0178 13.9802C19.1856 13.148 18.0926 12.7319 16.9995 12.7319Z" fill="#1E438A"/>
<path d="M21.9075 23.7697H12.0411C10.7302 23.7697 9.64496 24.8289 9.66062 26.1398C9.67627 27.4233 10.7302 28.4616 12.0189 28.4524C12.9985 28.4459 13.7838 27.6398 13.7838 26.6602V26.6289C13.7838 26.4567 13.6442 26.3185 13.4733 26.3185C13.3011 26.3185 13.1629 26.458 13.1629 26.6289V26.668C13.1629 27.3033 12.6529 27.8237 12.0189 27.8302C11.0485 27.8394 10.2593 27.0398 10.2841 26.0654C10.3076 25.1276 11.098 24.3906 12.0359 24.3906H21.9179C22.8557 24.3906 23.6449 25.1276 23.6697 26.0654C23.6945 27.0541 22.8805 27.8642 21.8892 27.8289C21.2722 27.8068 20.7909 27.285 20.7909 26.668V26.6289C20.7909 26.4567 20.6513 26.3185 20.4805 26.3185C20.3083 26.3185 20.17 26.458 20.17 26.6289V26.6602C20.17 27.6398 20.9553 28.4459 21.9348 28.4524C23.2236 28.4616 24.2775 27.4233 24.2932 26.1398C24.3036 24.8289 23.2184 23.7697 21.9075 23.7697Z" fill="#1E438A"/>
<path d="M10.2825 21.907C10.2825 23.2179 9.22203 24.3032 7.91244 24.2928C6.62892 24.2771 5.59064 23.2232 5.59977 21.9344C5.60629 20.9548 6.4124 20.1696 7.39199 20.1696H7.42329C7.59417 20.1696 7.73373 20.3079 7.73373 20.48C7.73373 20.6509 7.59547 20.7905 7.42329 20.7905H7.38416C6.74893 20.7905 6.22717 21.2992 6.22196 21.9344C6.21413 22.9049 7.01241 23.694 7.98678 23.6693C8.92463 23.6445 9.66161 22.8553 9.66161 21.9175V12.0355C9.66161 11.0976 8.92463 10.3072 7.98678 10.2837C7.01241 10.2589 6.21283 11.0481 6.22196 12.0185C6.22848 12.6525 6.74893 13.1625 7.38416 13.1625H7.42329C7.59417 13.1625 7.73373 13.3007 7.73373 13.4729C7.73373 13.6438 7.59547 13.7833 7.42329 13.7833H7.39199C6.4124 13.7833 5.60629 12.9981 5.59977 12.0185C5.59064 10.7298 6.62892 9.67585 7.91244 9.6602C9.22334 9.64455 10.2825 10.7298 10.2825 12.0407V21.907Z" fill="#1E438A"/>
<path d="M12.0926 10.2302H21.959C23.2621 10.2302 24.3551 9.16322 24.3395 7.86014C24.3238 6.57663 23.2699 5.53834 21.9812 5.54747C21.0016 5.55399 20.2163 6.3601 20.2163 7.33969V7.371C20.2163 7.54318 20.3559 7.68144 20.5268 7.68144C20.699 7.68144 20.8372 7.54187 20.8372 7.371V7.33187C20.8372 6.70185 21.3524 6.17618 21.9812 6.16966C22.9516 6.16053 23.7408 6.96012 23.716 7.93449C23.6925 8.85669 22.8864 9.60931 21.9642 9.60931H12.0848C11.1626 9.60931 10.3565 8.85669 10.333 7.93449C10.3083 6.96012 11.0974 6.16184 12.0679 6.16966C12.6979 6.17488 13.2118 6.70185 13.2118 7.33187V7.371C13.2118 7.54318 13.3514 7.68144 13.5222 7.68144C13.6944 7.68144 13.8327 7.54187 13.8327 7.371V7.33969C13.8327 6.3601 13.0475 5.55399 12.0679 5.54747C10.7791 5.53834 9.72519 6.57663 9.70954 7.86014C9.6965 9.16322 10.7896 10.2302 12.0926 10.2302Z" fill="#1E438A"/>
<path d="M23.7178 12.0929C23.7178 10.7819 24.7783 9.6967 26.0879 9.70975C27.3714 9.7254 28.4097 10.7793 28.4006 12.0681C28.394 13.0477 27.5879 13.8329 26.6083 13.8329H26.577C26.4062 13.8329 26.2666 13.6946 26.2666 13.5225C26.2666 13.3516 26.4048 13.212 26.577 13.212H26.6162C27.2514 13.212 27.7731 12.7033 27.7784 12.0681C27.7862 11.0976 26.9879 10.3085 26.0135 10.3332C25.0757 10.358 24.3387 11.1472 24.3387 12.085V21.9644C24.3387 22.9023 25.0757 23.6927 26.0135 23.7162C26.9879 23.741 27.7875 22.9518 27.7784 21.9814C27.7718 21.3474 27.2514 20.8374 26.6162 20.8374H26.577C26.4062 20.8374 26.2666 20.6992 26.2666 20.527C26.2666 20.3561 26.4048 20.2165 26.577 20.2165H26.6083C27.5879 20.2165 28.394 21.0018 28.4006 21.9814C28.4097 23.2701 27.3714 24.324 26.0879 24.3397C24.777 24.3553 23.7178 23.2701 23.7178 21.9592V12.0929Z" fill="#1E438A"/>
<path d="M15.4827 27.2475V27.2292C15.4827 26.6292 15.4058 26.1688 15.0249 25.7266C14.631 25.2701 14.0479 25.0079 13.4257 25.0079H13.4101C12.977 25.0079 12.5557 25.1709 12.2518 25.4801C12.0535 25.6809 11.9152 25.9262 11.8461 26.1936C11.7992 26.3749 11.9192 26.5627 12.1044 26.5875C12.2622 26.6084 12.4083 26.5079 12.4461 26.3566C12.4931 26.1688 12.5961 25.9979 12.7474 25.8649C12.9261 25.7083 13.1609 25.6301 13.3983 25.6301H13.4231C13.864 25.6301 14.2749 25.814 14.5514 26.1336C14.7797 26.3984 14.8579 26.6736 14.8579 27.2214C14.8136 27.9688 14.5253 28.5284 14.0036 28.8845C13.2353 29.4076 11.9492 29.465 10.6461 29.0358C10.6389 29.0332 10.6317 29.0309 10.6246 29.0286C10.6174 29.0264 10.6102 29.0241 10.603 29.0215C7.95123 28.1358 5.86422 26.0488 4.97724 23.3957C4.97463 23.3885 4.97235 23.3813 4.97007 23.3742C4.96779 23.367 4.96549 23.3598 4.96289 23.3526C4.53244 22.0509 4.59114 20.7647 5.1142 19.9951C5.47029 19.4721 6.02987 19.1851 6.77728 19.1408C7.32512 19.1421 7.60035 19.219 7.86514 19.4473C8.18471 19.7238 8.36863 20.1347 8.36863 20.5756V20.6004C8.36863 20.843 8.28645 21.0817 8.12471 21.2617C7.99557 21.4052 7.83253 21.5043 7.65252 21.5513C7.52078 21.5852 7.41773 21.6974 7.4086 21.833C7.39425 22.0443 7.58861 22.2074 7.79079 22.1578C8.07253 22.0887 8.3308 21.9413 8.5382 21.7287C8.83429 21.4261 8.98951 21.0139 8.98951 20.5913V20.5743C8.98951 19.9521 8.72733 19.3703 8.2708 18.9751C7.82861 18.5942 7.36817 18.5173 6.76815 18.5173H6.74989C5.80813 18.5708 5.06463 18.9608 4.60027 19.643C3.96112 20.5821 3.87634 22.0404 4.37331 23.5444L4.37646 23.5537C4.38058 23.5659 4.38453 23.5775 4.38766 23.59C5.33594 26.4271 7.56774 28.6588 10.4048 29.6071L10.4141 29.6103C10.4263 29.6144 10.4379 29.6184 10.4504 29.6215C11.9544 30.1185 13.4127 30.0337 14.3518 29.3945C15.0392 28.9328 15.4292 28.1893 15.4827 27.2475Z" fill="#1E438A"/>
<path d="M18.5193 27.2488V27.267C18.5728 28.2088 18.9628 28.9523 19.6489 29.4153C20.5881 30.0545 22.0464 30.1393 23.5503 29.6423L23.596 29.6266C26.433 28.6784 28.6648 26.4466 29.6131 23.6095C29.6183 23.5939 29.6235 23.5795 29.6288 23.5639C30.1257 22.0599 30.0409 20.6016 29.4018 19.6625C28.9374 18.9803 28.1939 18.5903 27.2522 18.5368H27.2339C26.6339 18.5368 26.1734 18.6138 25.7313 18.9946C25.2747 19.3899 25.0125 19.9716 25.0125 20.5938V20.6108C25.0125 21.0334 25.1678 21.4456 25.4639 21.7482C25.6713 21.9608 25.9295 22.1082 26.2113 22.1773C26.4135 22.2269 26.6078 22.0638 26.5935 21.8525C26.5843 21.7169 26.4813 21.6047 26.3495 21.5708C26.1695 21.5238 26.0065 21.4247 25.8774 21.2812C25.7156 21.1012 25.6334 20.8625 25.6334 20.6199V20.5951C25.6334 20.1542 25.8173 19.7433 26.1369 19.4668C26.4017 19.2386 26.6769 19.1616 27.2248 19.1603C27.9722 19.2046 28.5318 19.4916 28.8879 20.0147C29.4109 20.7842 29.4696 22.0704 29.0392 23.3721C29.034 23.3865 29.03 23.4008 29.0248 23.4152C28.1378 26.0683 26.0508 28.1553 23.399 29.041L23.3937 29.0429L23.3774 29.0482C23.3702 29.0505 23.3631 29.0527 23.356 29.0553C22.0529 29.4845 20.7668 29.4271 19.9985 28.904C19.4768 28.5479 19.1885 27.9883 19.1441 27.2409C19.1441 26.6931 19.2224 26.4179 19.4507 26.1531C19.7272 25.8335 20.1381 25.6496 20.579 25.6496H20.6037C20.8411 25.6496 21.0759 25.7278 21.2546 25.8844C21.4059 26.0174 21.509 26.1883 21.5559 26.3761C21.5938 26.5274 21.7399 26.6279 21.8977 26.607C22.0829 26.5822 22.2029 26.3944 22.156 26.2131C22.0868 25.9457 21.9486 25.7005 21.7503 25.4996C21.4464 25.1904 21.0251 25.0274 20.592 25.0274H20.5763C19.9542 25.0274 19.3711 25.2896 18.9772 25.7461C18.5963 26.1883 18.5193 26.6487 18.5193 27.2488Z" fill="#1E438A"/>
<path d="M18.5193 6.75297V6.77123C18.5193 7.37124 18.5963 7.83169 18.9772 8.27388C19.3711 8.73041 19.9542 8.99259 20.5763 8.99259H20.592C21.0251 8.99259 21.4464 8.82954 21.7503 8.5204C21.9486 8.31953 22.0868 8.07431 22.156 7.80691C22.2029 7.6256 22.0829 7.43777 21.8977 7.41298C21.7399 7.39211 21.5938 7.49255 21.5559 7.64386C21.509 7.83169 21.4059 8.00257 21.2546 8.13561C21.0759 8.29214 20.8411 8.3704 20.6037 8.3704H20.579C20.1381 8.3704 19.7272 8.18648 19.4507 7.86691C19.2224 7.60212 19.1441 7.3269 19.1441 6.77906C19.1885 6.03165 19.4768 5.47207 19.9985 5.11597C20.7668 4.59291 22.0529 4.53552 23.356 4.96466C23.3631 4.96727 23.3703 4.96954 23.3775 4.97182C23.3846 4.9741 23.3919 4.97641 23.399 4.97901C26.0508 5.86468 28.1378 7.95169 29.0248 10.6048C29.0274 10.612 29.0297 10.6191 29.032 10.6263C29.0343 10.6335 29.0366 10.6407 29.0392 10.6479C29.4696 11.9496 29.4109 13.2357 28.8879 14.0053C28.5318 14.5284 27.9722 14.8153 27.2248 14.8597C26.6769 14.8584 26.4017 14.7814 26.1369 14.5532C25.8173 14.2766 25.6334 13.8658 25.6334 13.4249V13.4001C25.6334 13.1575 25.7156 12.9188 25.8774 12.7388C26.0065 12.5953 26.1695 12.4962 26.3495 12.4492C26.4813 12.4153 26.5843 12.3031 26.5935 12.1675C26.6078 11.9561 26.4135 11.7931 26.2113 11.8427C25.9295 11.9118 25.6713 12.0592 25.4639 12.2718C25.1678 12.5744 25.0125 12.9866 25.0125 13.4092V13.4262C25.0125 14.0484 25.2747 14.6301 25.7313 15.0254C26.1734 15.4062 26.6339 15.4832 27.2339 15.4832H27.2522C28.1939 15.4297 28.9374 15.0397 29.4018 14.3575C30.0409 13.4184 30.1257 11.9601 29.6288 10.4561C29.6235 10.4405 29.6183 10.4261 29.6131 10.4105C28.6648 7.57342 26.433 5.34163 23.596 4.39334L23.5503 4.37769C22.0464 3.88072 20.5881 3.96551 19.6489 4.60465C18.9628 5.06771 18.5728 5.8112 18.5193 6.75297Z" fill="#1E438A"/>
<path d="M15.4825 6.75187V6.73361C15.429 5.79185 15.039 5.04835 14.3568 4.5866C13.4177 3.94745 11.9594 3.86267 10.4554 4.35964C10.4476 4.36224 10.4401 4.36485 10.4326 4.36746C10.4251 4.37007 10.4176 4.37268 10.4097 4.37529C7.57272 5.32357 5.34092 7.55537 4.39264 10.3924C4.38951 10.4049 4.38556 10.4165 4.38144 10.4287C4.3804 10.4318 4.37934 10.4349 4.37829 10.4381C3.88132 11.942 3.9661 13.4003 4.60525 14.3395C5.06961 15.0216 5.81311 15.4117 6.75487 15.4651H6.77313C7.37315 15.4651 7.83359 15.3882 8.27578 15.0073C8.73231 14.6121 8.99449 14.0303 8.99449 13.4081V13.3912C8.99449 12.9686 8.83927 12.5564 8.54318 12.2538C8.33578 12.0411 8.07751 11.8937 7.79577 11.8246C7.59359 11.775 7.39924 11.9381 7.41358 12.1494C7.42271 12.2851 7.52576 12.3972 7.6575 12.4311C7.83751 12.4781 8.00056 12.5772 8.12969 12.7207C8.29143 12.9007 8.37361 13.1394 8.37361 13.382V13.4068C8.37361 13.8477 8.18969 14.2586 7.87012 14.5351C7.60533 14.7634 7.3301 14.8403 6.78226 14.8416C6.03485 14.7973 5.47527 14.5103 5.11918 13.9873C4.59612 13.2177 4.53742 11.9316 4.96787 10.6298C4.97048 10.6226 4.97276 10.6154 4.97504 10.6083C4.97733 10.6011 4.97961 10.5939 4.98222 10.5868C5.86789 7.93364 7.9549 5.84793 10.6028 4.95965C10.61 4.95704 10.6171 4.95476 10.6243 4.95248C10.6315 4.95019 10.6387 4.94791 10.6458 4.9453C11.9489 4.51616 13.235 4.57355 14.0033 5.09661C14.5251 5.45271 14.8133 6.01229 14.8577 6.7597C14.8577 7.30754 14.7794 7.58276 14.5512 7.84755C14.2746 8.16712 13.8637 8.35104 13.4229 8.35104H13.3981C13.1607 8.35104 12.9259 8.27278 12.7472 8.11625C12.5959 7.98321 12.4928 7.81233 12.4459 7.6245C12.4081 7.47319 12.262 7.37276 12.1041 7.39363C11.9189 7.41841 11.7989 7.60624 11.8459 7.78755C11.915 8.05495 12.0533 8.30017 12.2515 8.50105C12.5555 8.81018 12.9768 8.97323 13.4098 8.97323H13.4255C14.0477 8.97323 14.6307 8.71105 15.0246 8.25452C15.4055 7.81233 15.4825 7.35189 15.4825 6.75187Z" fill="#1E438A"/>
<path fill-rule="evenodd" clip-rule="evenodd" d="M10.6033 32.7556C12.6395 33.5813 14.7917 34 17 34C19.2083 34 21.3605 33.5813 23.3967 32.7556C25.5059 31.9 27.3985 30.6438 29.0212 29.0212C30.6438 27.3985 31.9 25.5059 32.7556 23.3967C33.5813 21.3605 34 19.207 34 17C34 14.793 33.5813 12.6408 32.7556 10.6033C31.9 8.49413 30.6438 6.60147 29.0212 4.97882C27.3985 3.35617 25.5059 2.10005 23.3967 1.24438C21.3605 0.418706 19.207 0 17 0C14.793 0 12.6408 0.418706 10.6033 1.24438C8.49413 2.10005 6.60147 3.35617 4.97882 4.97882C3.35617 6.60147 2.10005 8.49413 1.24438 10.6033C0.418706 12.6395 0 14.793 0 17C0 19.207 0.418706 21.3592 1.24438 23.3967C2.10005 25.5059 3.35617 27.3985 4.97882 29.0212C6.60147 30.6438 8.49413 31.9 10.6033 32.7556ZM5.56579 5.56449C8.71848 2.4118 12.8586 0.836108 17 0.836108C21.1414 0.836108 25.2815 2.41311 28.4355 5.56449C34.7409 11.8699 34.7409 22.1288 28.4355 28.4342C22.1301 34.7396 11.8712 34.7383 5.56579 28.4342C-0.739584 22.1301 -0.739584 11.8699 5.56579 5.56449Z" fill="#1E438A"/>
</svg>
