<svg width="34" height="34" viewBox="0 0 34 34" fill="none" xmlns="http://www.w3.org/2000/svg">
<path d="M21.9075 23.7698C23.2185 23.7698 24.3037 24.8289 24.2933 26.1398C24.2776 27.4233 23.2237 28.4616 21.9349 28.4525C20.9554 28.446 20.1701 27.6399 20.1701 26.6603V26.629C20.1701 26.4581 20.3084 26.3185 20.4806 26.3185C20.6514 26.3185 20.791 26.4568 20.791 26.629V26.6681C20.791 27.2851 21.2723 27.8068 21.8893 27.829C22.8806 27.8642 23.6946 27.0542 23.6698 26.0655C23.645 25.1276 22.8558 24.3906 21.918 24.3906H12.036C11.0981 24.3906 10.3077 25.1276 10.2842 26.0655C10.2594 27.0398 11.0486 27.8394 12.019 27.8303C12.653 27.8238 13.163 27.3033 13.163 26.6681V26.629C13.163 26.4581 13.3012 26.3185 13.4734 26.3185C13.6443 26.3185 13.7839 26.4568 13.7839 26.629V26.6603C13.7839 27.6399 12.9986 28.446 12.019 28.4525C10.7303 28.4616 9.67637 27.4233 9.66071 26.1398C9.64506 24.8289 10.7303 23.7698 12.0412 23.7698H21.9075Z" fill="#1E438A"/>
<path d="M10.2826 21.9071V12.0407C10.2826 10.7298 9.22344 9.6446 7.91253 9.66025C6.62902 9.6759 5.59073 10.7298 5.59986 12.0186C5.60639 12.9982 6.41249 13.7834 7.39208 13.7834H7.42339C7.59557 13.7834 7.73383 13.6438 7.73383 13.473C7.73383 13.3008 7.59426 13.1625 7.42339 13.1625H7.38426C6.74902 13.1625 6.22858 12.6525 6.22205 12.0186C6.21292 11.0481 7.01251 10.259 7.98688 10.2837C8.92473 10.3072 9.66171 11.0977 9.66171 12.0355V21.9175C9.66171 22.8554 8.92473 23.6445 7.98688 23.6693C7.01251 23.6941 6.21423 22.9049 6.22205 21.9345C6.22727 21.2992 6.74902 20.7905 7.38426 20.7905H7.42339C7.59557 20.7905 7.73383 20.651 7.73383 20.4801C7.73383 20.3079 7.59426 20.1697 7.42339 20.1697H7.39208C6.41249 20.1697 5.60639 20.9549 5.59986 21.9345C5.59073 23.2232 6.62902 24.2771 7.91253 24.2928C9.22213 24.3032 10.2826 23.218 10.2826 21.9071Z" fill="#1E438A"/>
<path d="M12.0927 10.2302C10.7897 10.2302 9.69659 9.16327 9.70964 7.86019C9.72529 6.57668 10.7792 5.53839 12.068 5.54752C13.0475 5.55404 13.8328 6.36015 13.8328 7.33974V7.37105C13.8328 7.54192 13.6945 7.68149 13.5223 7.68149C13.3515 7.68149 13.2119 7.54322 13.2119 7.37105V7.33191C13.2119 6.7019 12.698 6.17493 12.068 6.16971C11.0975 6.16188 10.3083 6.96017 10.3331 7.93454C10.3566 8.85674 11.1627 9.60936 12.0849 9.60936H21.9643C22.8865 9.60936 23.6926 8.85674 23.7161 7.93454C23.7409 6.96017 22.9517 6.16058 21.9813 6.16971C21.3525 6.17623 20.8373 6.7019 20.8373 7.33191V7.37105C20.8373 7.54192 20.6991 7.68149 20.5269 7.68149C20.356 7.68149 20.2164 7.54322 20.2164 7.37105V7.33974C20.2164 6.36015 21.0017 5.55404 21.9813 5.54752C23.27 5.53839 24.3239 6.57668 24.3396 7.86019C24.3552 9.16327 23.2622 10.2302 21.9591 10.2302H12.0927Z" fill="#1E438A"/>
<path d="M23.7179 12.0929V21.9592C23.7179 23.2701 24.7771 24.3554 26.088 24.3397C27.3715 24.3241 28.4098 23.2701 28.4006 21.9814C28.3941 21.0018 27.588 20.2166 26.6084 20.2166H26.5771C26.4049 20.2166 26.2667 20.3562 26.2667 20.527C26.2667 20.6992 26.4062 20.8375 26.5771 20.8375H26.6163C27.2515 20.8375 27.7719 21.3475 27.7785 21.9814C27.7876 22.9519 26.988 23.741 26.0136 23.7162C25.0758 23.6928 24.3388 22.9023 24.3388 21.9645V12.0851C24.3388 11.1472 25.0758 10.3581 26.0136 10.3333C26.988 10.3085 27.7863 11.0977 27.7785 12.0681C27.7732 12.7034 27.2515 13.2121 26.6163 13.2121H26.5771C26.4049 13.2121 26.2667 13.3516 26.2667 13.5225C26.2667 13.6947 26.4062 13.8329 26.5771 13.8329H26.6084C27.588 13.8329 28.3941 13.0477 28.4006 12.0681C28.4098 10.7794 27.3715 9.72545 26.088 9.7098C24.7784 9.69675 23.7179 10.782 23.7179 12.0929Z" fill="#1E438A"/>
<path d="M15.4821 27.2291V27.2474C15.4287 28.1891 15.0386 28.9326 14.3512 29.3944C13.4121 30.0335 11.9538 30.1183 10.4498 29.6213C10.4342 29.6174 10.4198 29.6122 10.4042 29.607C7.56715 28.6587 5.33536 26.4269 4.38707 23.5899C4.38395 23.5774 4.38 23.5657 4.37588 23.5536L4.37272 23.5442C3.87575 22.0403 3.96054 20.582 4.59968 19.6428C5.06404 18.9606 5.80754 18.5706 6.7493 18.5171H6.76757C7.36758 18.5171 7.82803 18.5941 8.27021 18.975C8.72675 19.3702 8.98893 19.952 8.98893 20.5741V20.5911C8.98893 21.0137 8.83371 21.4259 8.53761 21.7285C8.33022 21.9411 8.07195 22.0885 7.7902 22.1577C7.58802 22.2072 7.39367 22.0442 7.40802 21.8329C7.41715 21.6972 7.52019 21.585 7.65194 21.5511C7.83194 21.5042 7.99499 21.405 8.12412 21.2616C8.28587 21.0816 8.36804 20.8428 8.36804 20.6002V20.5755C8.36804 20.1346 8.18412 19.7237 7.86455 19.4472C7.59976 19.2189 7.32454 19.1419 6.7767 19.1406C6.02929 19.185 5.46971 19.4719 5.11361 19.995C4.59055 20.7646 4.53186 22.0507 4.9623 23.3525C4.96491 23.3596 4.96718 23.3668 4.96946 23.374L4.97382 23.3874L4.97665 23.3955C5.86363 26.0486 7.95064 28.1356 10.6024 29.0213C10.6096 29.0239 10.6167 29.0262 10.6238 29.0285C10.631 29.0307 10.6384 29.0331 10.6455 29.0357C11.9486 29.4648 13.2347 29.4074 14.003 28.8844C14.5247 28.5283 14.813 27.9687 14.8573 27.2213C14.8573 26.6734 14.7791 26.3982 14.5508 26.1334C14.2743 25.8138 13.8634 25.6299 13.4225 25.6299H13.3977C13.1603 25.6299 12.9256 25.7082 12.7469 25.8647C12.5955 25.9978 12.4925 26.1686 12.4455 26.3565C12.4077 26.5078 12.2616 26.6082 12.1038 26.5873C11.9186 26.5626 11.7986 26.3747 11.8455 26.1934C11.9147 25.926 12.0529 25.6808 12.2512 25.4799C12.5551 25.1708 12.9764 25.0077 13.4095 25.0077H13.4251C14.0473 25.0077 14.6304 25.2699 15.0243 25.7265C15.4052 26.1686 15.4821 26.6291 15.4821 27.2291Z" fill="#1E438A"/>
<path d="M18.5187 27.2669V27.2486C18.5187 26.6486 18.5957 26.1881 18.9766 25.746C19.3705 25.2894 19.9536 25.0272 20.5758 25.0272H20.5914C21.0245 25.0272 21.4458 25.1903 21.7497 25.4994C21.948 25.7003 22.0862 25.9455 22.1554 26.2129C22.2023 26.3942 22.0823 26.5821 21.8971 26.6069C21.7393 26.6277 21.5932 26.5273 21.5553 26.376C21.5084 26.1881 21.4053 26.0173 21.254 25.8842C21.0753 25.7277 20.8405 25.6494 20.6032 25.6494H20.5784C20.1375 25.6494 19.7266 25.8334 19.4501 26.1529C19.2218 26.4177 19.1435 26.6929 19.1435 27.2408C19.1879 27.9882 19.4762 28.5478 19.9979 28.9039C20.7662 29.4269 22.0523 29.4843 23.3554 29.0552C23.3626 29.0526 23.3697 29.0503 23.3769 29.048L23.3868 29.0448L23.3984 29.0408C26.0502 28.1552 28.1373 26.0681 29.0242 23.415C29.0268 23.4079 29.0291 23.4007 29.0314 23.3935C29.0337 23.3863 29.036 23.3792 29.0386 23.372C29.469 22.0702 29.4103 20.7841 28.8873 20.0145C28.5312 19.4915 27.9716 19.2045 27.2242 19.1601C26.6764 19.1614 26.4011 19.2384 26.1363 19.4667C25.8168 19.7432 25.6328 20.1541 25.6328 20.595V20.6197C25.6328 20.8624 25.715 21.1011 25.8768 21.2811C26.0059 21.4245 26.1689 21.5237 26.349 21.5706C26.4807 21.6045 26.5837 21.7167 26.5929 21.8524C26.6072 22.0637 26.4129 22.2267 26.2107 22.1772C25.9289 22.108 25.6707 21.9606 25.4633 21.748C25.1672 21.4454 25.012 21.0332 25.012 20.6106V20.5937C25.012 19.9715 25.2741 19.3897 25.7307 18.9945C26.1729 18.6136 26.6333 18.5366 27.2333 18.5366H27.2516C28.1933 18.5901 28.9368 18.9801 29.4012 19.6623C30.0404 20.6015 30.1251 22.0598 29.6282 23.5637L29.6125 23.6094C28.6642 26.4464 26.4324 28.6782 23.5954 29.6265C23.5798 29.6317 23.5654 29.6369 23.5497 29.6421C22.0458 30.1391 20.5875 30.0543 19.6483 29.4152C18.9622 28.9521 18.5722 28.2086 18.5187 27.2669Z" fill="#1E438A"/>
<path d="M18.5187 6.77108V6.75282C18.5722 5.81106 18.9622 5.06756 19.6483 4.60451C20.5875 3.96536 22.0458 3.88057 23.5497 4.37754L23.5954 4.3932C26.4324 5.34148 28.6642 7.57328 29.6125 10.4103L29.6282 10.456C30.1251 11.9599 30.0404 13.4182 29.4012 14.3574C28.9368 15.0396 28.1933 15.4296 27.2516 15.483H27.2333C26.6333 15.483 26.1729 15.4061 25.7307 15.0252C25.2741 14.63 25.012 14.0482 25.012 13.426V13.4091C25.012 12.9865 25.1672 12.5743 25.4633 12.2717C25.6707 12.059 25.9289 11.9116 26.2107 11.8425C26.4129 11.7929 26.6072 11.956 26.5929 12.1673C26.5837 12.303 26.4807 12.4151 26.349 12.4491C26.1689 12.496 26.0059 12.5951 25.8768 12.7386C25.715 12.9186 25.6328 13.1573 25.6328 13.3999V13.4247C25.6328 13.8656 25.8168 14.2765 26.1363 14.553C26.4011 14.7813 26.6764 14.8582 27.2242 14.8595C27.9716 14.8152 28.5312 14.5282 28.8873 14.0052C29.4103 13.2356 29.469 11.9495 29.0386 10.6477C29.036 10.6405 29.0337 10.6334 29.0314 10.6262C29.0301 10.622 29.0287 10.6178 29.0274 10.6136C29.0264 10.6106 29.0253 10.6077 29.0242 10.6047C28.1373 7.95155 26.0502 5.86454 23.3984 4.97886C23.3913 4.97626 23.3841 4.97398 23.377 4.9717C23.3698 4.96942 23.3626 4.96712 23.3554 4.96451C22.0523 4.53537 20.7662 4.59277 19.9979 5.11582C19.4762 5.47192 19.1879 6.0315 19.1435 6.77891C19.1435 7.32675 19.2218 7.60197 19.4501 7.86676C19.7266 8.18634 20.1375 8.37025 20.5784 8.37025H20.6032C20.8405 8.37025 21.0753 8.29199 21.254 8.13547C21.4053 8.00242 21.5084 7.83154 21.5553 7.64371C21.5932 7.49241 21.7393 7.39197 21.8971 7.41284C22.0823 7.43762 22.2023 7.62545 22.1554 7.80676C22.0862 8.07416 21.948 8.31938 21.7497 8.52026C21.4458 8.8294 21.0245 8.99244 20.5914 8.99244H20.5758C19.9536 8.99244 19.3705 8.73026 18.9766 8.27373C18.5957 7.83154 18.5187 7.3711 18.5187 6.77108Z" fill="#1E438A"/>
<path d="M15.4819 6.73346V6.75172C15.4819 7.35174 15.4049 7.81219 15.0241 8.25437C14.6301 8.7109 14.0471 8.97308 13.4249 8.97308H13.4092C12.9762 8.97308 12.5549 8.81004 12.2509 8.5009C12.0527 8.30002 11.9144 8.0548 11.8453 7.7874C11.7983 7.60609 11.9183 7.41826 12.1036 7.39348C12.2614 7.37261 12.4075 7.47305 12.4453 7.62435C12.4923 7.81219 12.5953 7.98306 12.7466 8.11611C12.9253 8.27263 13.1601 8.3509 13.3975 8.3509H13.4223C13.8632 8.3509 14.274 8.16698 14.5506 7.8474C14.7788 7.58261 14.8571 7.30739 14.8571 6.75955C14.8128 6.01214 14.5245 5.45256 14.0027 5.09646C13.2345 4.57341 11.9483 4.51601 10.6453 4.94516C10.6381 4.94776 10.6309 4.95005 10.6237 4.95233C10.6166 4.95461 10.6094 4.9569 10.6022 4.9595C7.95432 5.84779 5.86731 7.93349 4.98163 10.5866C4.97903 10.5938 4.97675 10.6009 4.97447 10.6081C4.97218 10.6153 4.96989 10.6225 4.96728 10.6296C4.53684 11.9314 4.59553 13.2175 5.11859 13.9871C5.47469 14.5102 6.03427 14.7971 6.78168 14.8415C7.32952 14.8402 7.60474 14.7632 7.86953 14.535C8.18911 14.2584 8.37302 13.8476 8.37302 13.4067V13.3819C8.37302 13.1393 8.29085 12.9006 8.1291 12.7206C7.99997 12.5771 7.83692 12.478 7.65692 12.431C7.52518 12.3971 7.42213 12.2849 7.413 12.1493C7.39865 11.9379 7.593 11.7749 7.79518 11.8245C8.07693 11.8936 8.3352 12.041 8.54259 12.2536C8.83869 12.5562 8.99391 12.9684 8.99391 13.391V13.408C8.99391 14.0302 8.73173 14.6119 8.27519 15.0072C7.83301 15.388 7.37256 15.465 6.77255 15.465H6.75429C5.81252 15.4115 5.06902 15.0215 4.60466 14.3393C3.96552 13.4002 3.88073 11.9419 4.3777 10.4379L4.38085 10.4286C4.38497 10.4164 4.38893 10.4047 4.39205 10.3923C5.34034 7.55522 7.57213 5.32343 10.4092 4.37514L10.4548 4.35949C11.9588 3.86252 13.4171 3.9473 14.3562 4.58645C15.0384 5.0482 15.4284 5.7917 15.4819 6.73346Z" fill="#1E438A"/>
<path d="M19.2457 20.7497V20.0871H17.8829V13.7456H17.1824L15.1211 15.5444L15.3908 15.9204C15.4069 15.9438 15.4301 15.9651 15.4613 15.9854C15.492 16.0048 15.5247 16.0175 15.5599 16.0241C15.5946 16.0296 15.6329 16.0281 15.6747 16.02C15.7174 16.0119 15.7597 15.9905 15.8015 15.955L17.0334 14.8858C17.0239 15.0322 17.0193 15.1775 17.0193 15.3208V20.0871H15.5358V20.7497H19.2457Z" fill="#1E438A"/>
<path fill-rule="evenodd" clip-rule="evenodd" d="M10.6033 32.7556C12.6395 33.5813 14.7917 34 17 34C19.2083 34 21.3605 33.5813 23.3967 32.7556C25.5059 31.9 27.3985 30.6438 29.0212 29.0212C30.6438 27.3985 31.9 25.5059 32.7556 23.3967C33.5813 21.3605 34 19.207 34 17C34 14.793 33.5813 12.6408 32.7556 10.6033C31.9 8.49413 30.6438 6.60147 29.0212 4.97882C27.3985 3.35617 25.5059 2.10005 23.3967 1.24438C21.3605 0.418706 19.207 0 17 0C14.793 0 12.6408 0.418706 10.6033 1.24438C8.49413 2.10005 6.60147 3.35617 4.97882 4.97882C3.35617 6.60147 2.10005 8.49413 1.24438 10.6033C0.418706 12.6395 0 14.793 0 17C0 19.207 0.418706 21.3592 1.24438 23.3967C2.10005 25.5059 3.35617 27.3985 4.97882 29.0212C6.60147 30.6438 8.49413 31.9 10.6033 32.7556ZM5.56579 5.56449C8.71848 2.4118 12.8586 0.836108 17 0.836108C21.1414 0.836108 25.2815 2.41311 28.4355 5.56449C34.7409 11.8699 34.7409 22.1288 28.4355 28.4342C22.1301 34.7396 11.8712 34.7383 5.56579 28.4342C-0.739584 22.1301 -0.739584 11.8699 5.56579 5.56449Z" fill="#1E438A"/>
</svg>
