<svg width="120" height="120" viewBox="0 0 120 120" fill="none" xmlns="http://www.w3.org/2000/svg">
<path d="M65.6868 60.0001L60 65.687C58.4287 67.2582 55.8843 67.2582 54.3131 65.687C52.7418 64.1157 52.7418 61.5713 54.3131 60.0001L60 54.3132C61.5712 52.742 64.1156 52.742 65.6868 54.3132C67.2581 55.8845 67.2581 58.4288 65.6868 60.0001Z" fill="url(#paint0_linear_1446_8962)"/>
<path d="M101.134 18.8664C91.0012 8.73391 74.5031 8.73016 64.3631 18.8664L58.6763 24.5533C51.7987 31.4308 49.3706 41.6233 52.2994 50.837L50.8369 52.2995C41.6269 49.3727 31.4325 51.8008 24.555 58.6764L18.8681 64.3633C8.73 74.5014 8.73 90.9977 18.8681 101.136C23.9362 106.204 30.5962 108.739 37.2544 108.739C43.9144 108.739 50.5744 106.204 55.6425 101.136L61.3294 95.4489C68.2069 88.5714 70.6331 78.377 67.7062 69.167L69.1781 67.6952C71.7488 68.5127 74.3925 68.9345 77.0231 68.9345C83.8181 68.9345 90.4987 66.2814 95.4525 61.3258L101.137 55.6389C111.272 45.5008 111.272 29.0045 101.134 18.8664ZM67.0125 32.8914L72.6975 27.2045C78.2381 21.6658 87.255 21.6677 92.7956 27.2045C98.3344 32.7452 98.3344 41.762 92.7956 47.3008L87.1087 52.9877C83.8631 56.2314 79.2412 57.6714 74.7544 56.9383C74.7112 54.5514 73.9519 52.1795 72.4875 50.162L78.3844 44.2652L75.7331 41.6139L69.8362 47.5108C67.8187 46.0464 65.4487 45.287 63.06 45.2439C62.3325 40.7608 63.7706 36.1333 67.0125 32.8914ZM62.8444 48.9827C64.9387 48.9827 67.0313 49.7795 68.6269 51.3733C71.8144 54.5608 71.8144 59.7508 68.6269 62.9383L62.94 68.6252C59.7506 71.8145 54.5644 71.8145 51.375 68.6252C48.1875 65.4377 48.1875 60.2477 51.375 57.0602L57.0619 51.3733C58.6556 49.7795 60.75 48.9827 62.8444 48.9827ZM52.9875 87.1089L47.3006 92.7958C41.76 98.3364 32.745 98.3364 27.2044 92.7958C24.5194 90.1108 23.0419 86.5427 23.0419 82.7477C23.0419 78.9527 24.5194 75.3845 27.2044 72.7014L32.8912 67.0145C36.1331 63.7727 40.7587 62.3402 45.2456 63.0658C45.2887 65.4527 46.0481 67.8227 47.5125 69.8383L41.6137 75.737L44.265 78.3883L50.1637 72.4914C52.1812 73.9558 54.5513 74.7152 56.94 74.7583C57.6694 79.2395 56.2313 83.867 52.9875 87.1089ZM58.6744 92.7958L52.9875 98.4827C44.31 107.153 30.195 107.156 21.5175 98.4827C12.8419 89.8052 12.8419 75.6902 21.5175 67.0127L27.2044 61.3258C32.6362 55.8977 40.4869 53.7058 47.8669 55.367C46.8937 56.5764 46.1906 57.9302 45.7575 59.3514C40.1212 58.4627 34.3144 60.2889 30.24 64.3633L24.5531 70.0502C21.1594 73.442 19.2919 77.9514 19.2919 82.7477C19.2919 87.5439 21.1594 92.0552 24.5531 95.447C28.0537 98.9477 32.6531 100.699 37.2525 100.699C41.8519 100.699 46.4494 98.9477 49.95 95.447L55.6369 89.7602C59.7131 85.6839 61.5356 79.877 60.6469 74.2427C62.0681 73.8095 63.4238 73.1083 64.6313 72.1333C66.2981 79.5095 64.1062 87.3639 58.6744 92.7958ZM98.4825 52.9877L92.7975 58.6745C87.3656 64.1045 79.5112 66.3002 72.1331 64.6352C73.1062 63.4277 73.8094 62.072 74.2425 60.6527C75.1706 60.7989 76.1025 60.8964 77.0325 60.8964C81.7444 60.8964 86.3569 59.0458 89.7619 55.6389L95.4487 49.952C102.45 42.9508 102.45 31.5564 95.4487 24.5533C88.4475 17.552 77.0494 17.552 70.0481 24.5533L64.3631 30.2402C60.285 34.3183 58.4625 40.1233 59.3512 45.7577C57.93 46.1908 56.5744 46.892 55.3669 47.867C53.7019 40.4889 55.8956 32.6364 61.3275 27.2027L67.0144 21.5158C75.6938 12.8402 89.8069 12.8439 98.4825 21.5158C102.684 25.7214 105 31.307 105 37.2527C105 43.1964 102.684 48.7839 98.4825 52.9877Z" fill="url(#paint1_linear_1446_8962)"/>
<defs>
<linearGradient id="paint0_linear_1446_8962" x1="60" y1="50.1563" x2="60" y2="69.8326" gradientUnits="userSpaceOnUse">
<stop stop-color="#6DC7FF"/>
<stop offset="1" stop-color="#E6ABFF"/>
</linearGradient>
<linearGradient id="paint1_linear_1446_8962" x1="60" y1="5.15641" x2="60" y2="112.069" gradientUnits="userSpaceOnUse">
<stop stop-color="#1A6DFF"/>
<stop offset="1" stop-color="#C822FF"/>
</linearGradient>
</defs>
</svg>
