<svg width="80" height="80" viewBox="0 0 80 80" fill="none" xmlns="http://www.w3.org/2000/svg">
<path d="M40.0005 44.9071C38.7437 44.9071 37.4831 44.4292 36.5273 43.4697C34.612 41.5543 34.612 38.4386 36.5273 36.5195C38.4427 34.6042 41.5584 34.6042 43.4775 36.5195C45.3928 38.4348 45.3928 41.5506 43.4775 43.4697C42.5179 44.4292 41.2573 44.9071 40.0005 44.9071ZM40.0005 36.1583C39.0184 36.1583 38.0325 36.5346 37.2837 37.2796C35.786 38.7773 35.786 41.2157 37.2837 42.7095C38.7813 44.2072 41.2197 44.2072 42.7136 42.7095C44.2112 41.2119 44.2112 38.7735 42.7136 37.2796C41.9685 36.5308 40.9826 36.1583 40.0005 36.1583Z" fill="white"/>
<path d="M39.9997 48.1581C37.821 48.1581 35.7702 47.3077 34.2274 45.7686C32.6846 44.2258 31.8379 42.1788 31.8379 39.9963C31.8379 37.8138 32.6883 35.7667 34.2274 34.2239C35.7702 32.6811 37.8172 31.8345 39.9997 31.8345C42.1822 31.8345 44.2292 32.6849 45.772 34.2239C47.3148 35.7667 48.1615 37.8138 48.1615 39.9963C48.1615 42.1788 47.3111 44.2258 45.772 45.7686C44.2292 47.3077 42.1784 48.1581 39.9997 48.1581ZM39.9997 33.1026C38.1596 33.1026 36.4287 33.8213 35.1267 35.1233C33.8247 36.4253 33.106 38.1562 33.106 39.9963C33.106 41.8364 33.8247 43.5673 35.1267 44.8693C36.4287 46.1713 38.1596 46.89 39.9997 46.89C41.8398 46.89 43.5707 46.1713 44.8727 44.8693C46.1747 43.5673 46.8934 41.8364 46.8934 39.9963C46.8934 38.1562 46.1747 36.4253 44.8727 35.1233C43.5707 33.8213 41.8398 33.1026 39.9997 33.1026Z" fill="white"/>
<path d="M39.9966 51.4996C36.9223 51.4996 34.0323 50.303 31.8611 48.128C27.3757 43.6426 27.3757 36.3425 31.8611 31.8533C36.3466 27.3679 43.6466 27.3679 48.1358 31.8533C50.3108 34.0283 51.5074 36.9182 51.5074 39.9888C51.5074 43.0593 50.3108 45.953 48.1358 48.1243C45.9608 50.303 43.0709 51.4996 39.9966 51.4996ZM39.9966 29.953C37.4228 29.953 34.8527 30.9314 32.8959 32.8919C28.9787 36.8091 28.9787 43.1798 32.8959 47.097C34.7925 48.9935 37.3174 50.0396 39.9966 50.0396C42.6758 50.0396 45.2007 48.9935 47.0973 47.097C48.9938 45.2005 50.0399 42.6793 50.0399 39.9963C50.0399 37.3133 48.9938 34.7922 47.0973 32.8957C45.1405 30.9314 42.5704 29.953 39.9966 29.953Z" fill="white"/>
<path d="M40 80C34.8034 80 29.7385 79.0141 24.9483 77.0724C19.9849 75.0593 15.5334 72.1016 11.714 68.286C7.89464 64.4666 4.94073 60.0151 2.92756 55.0517C0.982126 50.2578 0 45.1929 0 40C0 34.8072 0.985889 29.7385 2.92756 24.9483C4.94073 19.985 7.8984 15.5334 11.714 11.714C15.5334 7.89464 19.9849 4.94073 24.9483 2.92756C29.7422 0.982126 34.8072 0 40 0C45.1929 0 50.2615 0.985889 55.0517 2.92756C60.0151 4.94073 64.4666 7.8984 68.286 11.714C72.1054 15.5334 75.0593 19.985 77.0724 24.9483C79.0179 29.7422 80 34.8072 80 40C80 45.1929 79.0141 50.2615 77.0724 55.0517C75.0593 60.0151 72.1016 64.4666 68.286 68.286C64.4666 72.1054 60.0151 75.0593 55.0517 77.0724C50.2615 79.0141 45.1966 80 40 80ZM40 1.96049C30.254 1.96049 20.5118 5.67074 13.0913 13.0875C-1.746 27.9247 -1.746 52.0677 13.0913 66.9012C27.9285 81.7347 52.0715 81.7385 66.905 66.9012C81.7385 52.064 81.7422 27.921 66.905 13.0875C59.4882 5.67074 49.746 1.96049 40 1.96049Z" fill="white"/>
<path d="M51.5483 55.9282H39.9396H28.331C25.2454 55.9282 22.6903 58.4231 22.7279 61.5049C22.7656 64.5265 25.2454 66.9687 28.2783 66.9461C30.5812 66.931 32.4326 65.0308 32.4326 62.7278V62.6564C32.4326 62.2537 32.1052 61.9263 31.7025 61.9263C31.2999 61.9263 30.9725 62.2537 30.9725 62.6564V62.7504C30.9725 64.2443 29.7722 65.471 28.2783 65.4861C25.9942 65.5087 24.1353 63.6272 24.1955 61.3356C24.2519 59.1305 26.1108 57.3958 28.3159 57.3958H39.9434H51.5708C53.7759 57.3958 55.6348 59.1305 55.6913 61.3356C55.7515 63.6648 53.8324 65.5651 51.4993 65.4861C50.0469 65.4334 48.9142 64.2067 48.9142 62.7542V62.6601C48.9142 62.2575 48.5868 61.9301 48.1842 61.9301C47.7816 61.9301 47.4542 62.2575 47.4542 62.6601V62.7316C47.4542 65.0345 49.3018 66.931 51.6085 66.9499C54.6414 66.9724 57.1212 64.5303 57.1588 61.5087C57.1851 58.4193 54.6301 55.9282 51.5483 55.9282Z" fill="white"/>
<path d="M24.1919 51.5449V39.9362V28.3275C24.1919 25.2419 21.697 22.6869 18.6152 22.7245C15.5936 22.7622 13.1514 25.2419 13.174 28.2749C13.189 30.5778 15.0893 32.4291 17.3922 32.4291H17.4637C17.8664 32.4291 18.1937 32.1018 18.1937 31.6991C18.1937 31.2965 17.8664 30.9691 17.4637 30.9691H17.3697C15.8758 30.9691 14.6491 29.7687 14.634 28.2749C14.6114 25.9908 16.4929 24.1319 18.7845 24.1921C20.9896 24.2485 22.7243 26.1074 22.7243 28.3125V39.94V51.5674C22.7243 53.7725 20.9896 55.6314 18.7845 55.6878C16.4929 55.7481 14.6114 53.8892 14.634 51.6051C14.6491 50.1112 15.8758 48.9108 17.3697 48.9108H17.4637C17.8664 48.9108 18.1937 48.5834 18.1937 48.1808C18.1937 47.7782 17.8664 47.4508 17.4637 47.4508H17.3922C15.0893 47.4508 13.1928 49.2984 13.174 51.6051C13.1514 54.638 15.5936 57.1178 18.6152 57.1554C21.697 57.1817 24.1919 54.6267 24.1919 51.5449Z" fill="white"/>
<path d="M28.4516 24.0639H40.0602H51.6689C54.7357 24.0639 57.3095 21.554 57.2719 18.4873C57.2342 15.4656 54.7545 13.0235 51.7215 13.0461C49.4186 13.0611 47.5673 14.9614 47.5673 17.2643V17.3358C47.5673 17.7384 47.8946 18.0658 48.2973 18.0658C48.6999 18.0658 49.0273 17.7384 49.0273 17.3358V17.2417C49.0273 15.7591 50.2389 14.5211 51.7215 14.5061C54.0056 14.4835 55.8645 16.365 55.8043 18.6566C55.7479 20.824 53.8551 22.5964 51.6839 22.5964H40.0564H28.429C26.2578 22.5964 24.365 20.824 24.3086 18.6566C24.2484 16.365 26.1072 14.4835 28.3913 14.5061C29.8739 14.5211 31.0856 15.7591 31.0856 17.2417V17.3358C31.0856 17.7384 31.413 18.0658 31.8156 18.0658C32.2183 18.0658 32.5456 17.7384 32.5456 17.3358V17.2643C32.5456 14.9614 30.698 13.0649 28.3913 13.0461C25.3584 13.0235 22.8787 15.4656 22.841 18.4873C22.8147 21.554 25.3848 24.0639 28.4516 24.0639Z" fill="white"/>
<path d="M55.8076 28.4477V40.0563V51.665C55.8076 54.7506 58.3024 57.3056 61.3843 57.268C64.4059 57.2303 66.8481 54.7506 66.8255 51.7176C66.8104 49.4147 64.9102 47.5634 62.6072 47.5634H62.5357C62.1331 47.5634 61.8057 47.8907 61.8057 48.2934C61.8057 48.696 62.1331 49.0234 62.5357 49.0234H62.6298C64.1237 49.0234 65.3504 50.2238 65.3655 51.7176C65.3881 54.0017 63.5066 55.8606 61.215 55.8004C59.0099 55.744 57.2752 53.8851 57.2752 51.68V40.0525V28.4251C57.2752 26.22 59.0099 24.3611 61.215 24.3047C63.5066 24.2445 65.3881 26.1033 65.3655 28.3874C65.3504 29.8813 64.1237 31.0817 62.6298 31.0817H62.5357C62.1331 31.0817 61.8057 31.4091 61.8057 31.8117C61.8057 32.2143 62.1331 32.5417 62.5357 32.5417H62.6072C64.9102 32.5417 66.8067 30.6941 66.8255 28.3874C66.8481 25.3545 64.4059 22.8747 61.3843 22.8371C58.3024 22.8108 55.8076 25.3658 55.8076 28.4477Z" fill="white"/>
<path d="M36.4241 64.1093V64.0679C36.4241 62.6568 36.2435 61.5731 35.3479 60.5345C34.4185 59.4583 33.0488 58.845 31.585 58.845H31.5474C30.5276 58.845 29.538 59.2288 28.823 59.955C28.3564 60.4292 28.0328 61.0049 27.871 61.6333C27.7619 62.0585 28.0441 62.5026 28.4806 62.559C28.8531 62.6079 29.1955 62.3709 29.2859 62.0171C29.395 61.5731 29.6396 61.1742 29.997 60.8619C30.4185 60.4931 30.9716 60.3088 31.5286 60.3088H31.5888C32.6273 60.3088 33.5944 60.7415 34.2454 61.4941C34.7835 62.115 34.9641 62.7622 34.9679 64.0529C34.8625 65.8139 34.1852 67.1272 32.9547 67.9663C31.1447 69.1968 28.1193 69.3323 25.0563 68.3201C25.0224 68.3088 24.9886 68.2975 24.9547 68.2862C18.712 66.2015 13.8051 61.2909 11.7167 55.0482C11.7054 55.0143 11.6941 54.9804 11.6828 54.9466C10.6706 51.8836 10.8061 48.8544 12.0366 47.0482C12.8719 45.8177 14.189 45.1404 15.95 45.035C17.2407 45.0388 17.8879 45.2194 18.5088 45.7575C19.2614 46.4085 19.6941 47.3756 19.6941 48.4141V48.4743C19.6941 49.0463 19.5022 49.607 19.1184 50.0322C18.8174 50.3709 18.4335 50.6004 18.0083 50.7133C17.696 50.7961 17.4552 51.0557 17.4364 51.3793C17.4025 51.876 17.8616 52.2598 18.3357 52.1432C18.998 51.9776 19.6038 51.6352 20.0968 51.1347C20.7929 50.4235 21.1579 49.4527 21.1579 48.4593V48.4217C21.1579 46.9579 20.5408 45.5882 19.4684 44.6587C18.4298 43.7594 17.3461 43.5825 15.935 43.5825H15.8936C13.6772 43.7105 11.9274 44.6249 10.8362 46.2316C9.33101 48.4405 9.13157 51.8723 10.3018 55.4132C10.3131 55.4471 10.3244 55.4847 10.3357 55.5185C12.5671 62.194 17.8164 67.4471 24.4956 69.6785C24.5295 69.6898 24.5671 69.7011 24.601 69.7123C28.1419 70.8826 31.5737 70.6794 33.7826 69.178C35.3818 68.0755 36.3 66.3257 36.4241 64.1093Z" fill="white"/>
<path d="M43.5742 64.1543V64.1129C43.5742 62.7018 43.7548 61.618 44.6504 60.5795C45.5799 59.5033 46.9496 58.8899 48.4134 58.8899H48.451C49.4707 58.8899 50.4604 59.2737 51.1753 60C51.642 60.4741 51.9656 61.0498 52.1274 61.6782C52.2365 62.1035 51.9543 62.5475 51.5178 62.6039C51.1452 62.6528 50.8028 62.4158 50.7125 62.0621C50.6034 61.618 50.3588 61.2192 50.0013 60.9068C49.5799 60.5381 49.0267 60.3537 48.4698 60.3537H48.4096C47.371 60.3537 46.4039 60.7864 45.753 61.539C45.2149 62.1599 45.0342 62.8071 45.0305 64.0978C45.1358 65.8589 45.8132 67.1721 47.0436 68.0113C48.8536 69.2417 51.879 69.3772 54.942 68.365C54.9759 68.3537 55.0098 68.3424 55.0436 68.3311C61.2864 66.2464 66.1932 61.3358 68.2817 55.0931C68.2929 55.0592 68.3042 55.0254 68.3155 54.9915C69.3277 51.9285 69.1923 48.8993 67.9618 47.0931C67.1264 45.8626 65.8094 45.1853 64.0483 45.0799C62.7577 45.0837 62.1104 45.2643 61.4896 45.8024C60.737 46.4534 60.3042 47.4205 60.3042 48.4591V48.5193C60.3042 49.0912 60.4961 49.6519 60.88 50.0771C61.181 50.4158 61.5648 50.6453 61.99 50.7582C62.3023 50.841 62.5432 51.1006 62.562 51.4242C62.5959 51.9209 62.1368 52.3048 61.6627 52.1881C61.0004 52.0225 60.3945 51.6801 59.9016 51.1797C59.2055 50.4685 58.8404 49.4976 58.8404 48.5042V48.4666C58.8404 47.0028 59.4576 45.6331 60.53 44.7036C61.5686 43.8043 62.6523 43.6274 64.0634 43.6274H64.1048C66.3212 43.7554 68.0709 44.6698 69.1622 46.2765C70.6674 48.4854 70.8668 51.9172 69.6965 55.4581C69.6852 55.492 69.6739 55.5296 69.6626 55.5635C67.4312 62.2389 62.1819 67.492 55.5027 69.7234C55.4689 69.7347 55.4312 69.746 55.3974 69.7573C51.8564 70.9275 48.4246 70.7243 46.2158 69.2229C44.6166 68.1204 43.6984 66.3706 43.5742 64.1543Z" fill="white"/>
<path d="M43.5742 15.8832V15.9245C43.5742 17.3356 43.7548 18.4194 44.6504 19.4579C45.5799 20.5341 46.9496 21.1475 48.4134 21.1475H48.451C49.4707 21.1475 50.4604 20.7637 51.1753 20.0374C51.642 19.5633 51.9656 18.9876 52.1274 18.3592C52.2365 17.934 51.9543 17.4899 51.5178 17.4335C51.1452 17.3846 50.8028 17.6216 50.7125 17.9753C50.6034 18.4194 50.3588 18.8182 50.0013 19.1306C49.5799 19.4993 49.0267 19.6837 48.4698 19.6837H48.4096C47.371 19.6837 46.4039 19.251 45.753 18.4984C45.2149 17.8775 45.0342 17.2303 45.0305 15.9396C45.1358 14.1785 45.8132 12.8653 47.0436 12.0261C48.8536 10.7957 51.879 10.6602 54.942 11.6724C54.9759 11.6837 55.0098 11.695 55.0436 11.7063C61.2864 13.791 66.1932 18.7016 68.2817 24.9443C68.2929 24.9782 68.3042 25.012 68.3155 25.0459C69.3277 28.1089 69.1923 31.1381 67.9618 32.9443C67.1264 34.1748 65.8094 34.8521 64.0483 34.9575C62.7577 34.9537 62.1104 34.7731 61.4896 34.235C60.737 33.584 60.3042 32.6169 60.3042 31.5784V31.5182C60.3042 30.9462 60.4961 30.3855 60.88 29.9603C61.181 29.6216 61.5648 29.3921 61.99 29.2792C62.3023 29.1964 62.5432 28.9368 62.562 28.6132C62.5959 28.1165 62.1368 27.7326 61.6627 27.8493C61.0004 28.0149 60.3945 28.3573 59.9016 28.8578C59.2055 29.5689 58.8404 30.5398 58.8404 31.5332V31.5708C58.8404 33.0346 59.4576 34.4043 60.53 35.3338C61.5686 36.2331 62.6523 36.41 64.0634 36.41H64.1048C66.3212 36.282 68.0709 35.3676 69.1622 33.7609C70.6674 31.552 70.8668 28.1202 69.6965 24.5793C69.6852 24.5454 69.6739 24.5078 69.6626 24.4739C67.4312 17.7985 62.1819 12.5454 55.5027 10.314C55.4689 10.3027 55.4312 10.2914 55.3974 10.2801C51.8564 9.10987 48.4246 9.31307 46.2158 10.8145C44.6166 11.917 43.6984 13.6668 43.5742 15.8832Z" fill="white"/>
<path d="M36.4241 15.8379V15.8793C36.4241 17.2904 36.2435 18.3741 35.3479 19.4127C34.4185 20.4889 33.0488 21.1022 31.585 21.1022H31.5474C30.5276 21.1022 29.538 20.7184 28.823 19.9922C28.3564 19.518 28.0328 18.9423 27.871 18.3139C27.7619 17.8887 28.0441 17.4447 28.4806 17.3882C28.8531 17.3393 29.1955 17.5764 29.2859 17.9301C29.395 18.3741 29.6396 18.773 29.997 19.0853C30.4185 19.4541 30.9716 19.6385 31.5286 19.6385H31.5888C32.6273 19.6385 33.5944 19.2057 34.2454 18.4531C34.7835 17.8322 34.9641 17.185 34.9679 15.8943C34.8625 14.1333 34.1852 12.82 32.9547 11.9809C31.1447 10.7504 28.1193 10.6149 25.0563 11.6272C25.0224 11.6385 24.9886 11.6497 24.9547 11.661C18.712 13.7495 13.8014 18.6601 11.7167 24.9028C11.7054 24.9367 11.6941 24.9705 11.6828 25.0044C10.6706 28.0674 10.8061 31.0966 12.0366 32.9028C12.8719 34.1333 14.189 34.8106 15.95 34.916C17.2407 34.9122 17.8879 34.7316 18.5088 34.1935C19.2614 33.5425 19.6941 32.5754 19.6941 31.5369V31.4766C19.6941 30.9047 19.5022 30.344 19.1184 29.9188C18.8174 29.5801 18.4335 29.3506 18.0083 29.2377C17.696 29.1549 17.4552 28.8953 17.4364 28.5717C17.4025 28.075 17.8616 27.6911 18.3357 27.8078C18.998 27.9734 19.6038 28.3158 20.0968 28.8162C20.7929 29.5274 21.1579 30.4983 21.1579 31.4917V31.5293C21.1579 32.9931 20.5408 34.3628 19.4684 35.2923C18.4298 36.1916 17.3461 36.3685 15.935 36.3685H15.8936C13.6772 36.2405 11.9274 35.3261 10.8362 33.7194C9.33101 31.5105 9.13157 28.0787 10.3018 24.5378C10.3131 24.5039 10.3244 24.4663 10.3357 24.4324C12.5671 17.757 17.8164 12.5039 24.4956 10.2725C24.5295 10.2612 24.5671 10.2499 24.601 10.2386C28.1419 9.06837 31.5737 9.27157 33.7826 10.773C35.3818 11.8718 36.3 13.6215 36.4241 15.8379Z" fill="white"/>
</svg>
